<?xml version="1.0" encoding="utf-8"?>
<!-- Generator: Adobe Illustrator 27.5.0, SVG Export Plug-In . SVG Version: 6.00 Build 0)  -->
<svg version="1.1" id="Слой_1" xmlns="http://www.w3.org/2000/svg" xmlns:xlink="http://www.w3.org/1999/xlink" x="0px" y="0px"
	 viewBox="0 0 3200 2000" style="enable-background:new 0 0 3200 2000;" xml:space="preserve">
<rect x="0.007" y="0.009" style="fill:#FFFFFF;" width="3200" height="2000"/>
<g>
	<path style="fill:#EBF3FA;" d="M452.515,1773.869c0,0-268.85-429.198-67.94-854.236
		c189.064-399.977,504.37-188.169,856.973-505.863c535.316-482.32,1597.364-208.049,1377.844,457.933
		c-113.774,345.172,464.265,551.943,270.853,902.909L452.515,1773.869z"/>
	<g>
		<path style="fill:#D9E7FC;" d="M2325.447,1197.076h-309.711c-4.102,0-7.457-3.355-7.457-7.457v-23.775
			c0-4.102,3.355-7.458,7.457-7.458h309.711c4.102,0,7.457,3.356,7.457,7.458v23.775
			C2332.904,1193.721,2329.549,1197.076,2325.447,1197.076z"/>
		<g>
			<path style="fill:#D9E7FC;" d="M2086.948,1197.075l-3.856,22.638l-55.824,327.722c-0.157,1.143-1.416,2.01-2.919,2.01
				c-2.865,0-5.098-1.903-4.794-4.091l44.274-335.602l1.677-12.677H2086.948z"/>
		</g>
		<path style="fill:#BFD3EF;" d="M2086.948,1197.075l-3.856,22.638c-2.648-9.018-19.263-9.961-19.263-9.961l1.677-12.677H2086.948z"
			/>
		<g>
			<g>
				<path style="fill:#D9E7FC;" d="M2316.835,1775.458c-1.503,0-2.762-1.423-2.918-3.299l-55.825-537.926l-2.406-23.181
					l-1.449-13.978h21.441l1.677,20.809l1.312,16.328l42.963,534.531C2321.933,1772.334,2319.701,1775.458,2316.835,1775.458z"/>
			</g>
			<path style="fill:#BFD3EF;" d="M2278.666,1234.212c-5.455-17.708-22.971-23.146-22.971-23.146s0-0.007-0.01-0.014l-1.449-13.978
				h21.441l1.677,20.809L2278.666,1234.212z"/>
		</g>
	</g>
	<g>
		<path style="opacity:0.5;fill:#DFEBFD;" d="M2043.116,998.479c0,0,108.712-160.92,249.228-218.022
			c18.674-7.589,36.564,12.569,26.967,30.294c-0.16,0.295-0.324,0.593-0.493,0.893
			C2301.939,841.644,2137.174,920.03,2043.116,998.479z"/>
		<path style="opacity:0.5;fill:#DFEBFD;" d="M2007.176,1042.068c0,0,197.843-169.245,396.155-187.062
			c12.093-1.086,23.362,7.365,24.897,19.409c0.999,7.844-1.871,17.817-13.614,29.653
			C2383.3,935.629,2151.227,976.674,2007.176,1042.068z"/>
	</g>
	<g>
		<path style="fill:#DFEBFD;" d="M1336.747,768.706c0,0-76.757-89.775-87.5-181.398c-1.428-12.176,13.286-19.404,22.125-10.909
			c0.147,0.142,0.295,0.286,0.444,0.434C1286.673,591.583,1305.971,700.867,1336.747,768.706z"/>
		<path style="fill:#DFEBFD;" d="M1356.488,796.83c0,0-67.217-143.378-45.576-262.531c1.32-7.266,8.098-12.506,15.408-11.457
			c4.76,0.684,10.143,3.98,15.182,12.78C1354.94,559.088,1341.455,701.794,1356.488,796.83z"/>
	</g>
	<path style="fill:#DFEBFD;" d="M1683.781,416.464c-33.908-36.777-99.194,14.253-99.194,14.253s-10.021,100.499-23.364,109.72
		c-13.344,9.221-8.21-87.597-8.21-87.597c-29.049,11.733-81.86,82.352-81.86,82.352s50.011,85.099,34.808,90.752
		c-15.203,5.652-40.438-77.611-40.438-77.611c-22.579,21.973-31.289,66.21-31.289,66.21c-4.729,67.117,81.699,69.723,81.699,69.723
		s16.695,29.866,16.089,74.417l-0.001,0.001c0,0-0.88,8.627,0.511,21.784l7.296-3.802c-0.423-2.267-0.752-4.5-0.971-6.695
		c-0.007-0.014-0.007-0.026-0.003-0.04c-0.003-0.032-0.005-0.063-0.009-0.095c-0.088-1.388-0.205-3.366-0.329-5.787
		c0-0.003,0-0.006,0-0.009c-0.002-0.005,0.002-0.007,0-0.012c-0.045-5.525-0.218-9.533-0.479-12.357
		c0-0.009-0.002-0.018-0.004-0.025c-0.458-17.178-0.135-40.039,4.332-47.126c0,0-1.399-0.715-3.305-2.533
		c1.054,0.808,2.153,1.649,3.305,2.533c26.434,20.255,91.203-7.821,122.275-33.085c31.072-25.264,10.794-27.175-16.237-33.341
		c-27.032-6.165-64.096,18.484-78.947,18.282c-14.851-0.202-1.155-15.278,22.969-25.579s47.806,6.851,87.132-9.102
		c39.326-15.954,31.153-101.302,31.153-101.302c-21.688,21.508-75.512,31.405-81.944,23.414s62.723-42.889,72.033-51.143
		C1710.11,484.412,1717.688,453.242,1683.781,416.464z"/>
	<path style="fill:#DFEBFD;" d="M2064.57,466.395c-50.139-54.382-146.677,21.076-146.677,21.076s-14.816,148.607-34.548,162.241
		c-19.73,13.635-12.141-129.528-12.141-129.528c-42.954,17.349-121.046,121.772-121.046,121.772s73.951,125.835,51.471,134.194
		c-22.48,8.358-59.796-114.762-59.796-114.762c-33.387,32.491-46.266,97.904-46.266,97.904
		c-6.993,99.245,120.807,103.099,120.807,103.099s24.688,44.162,23.791,110.04l-0.001,0.002c0,0-1.302,12.755,0.755,32.212
		l10.788-5.622c-0.626-3.352-1.111-6.654-1.435-9.9c-0.012-0.021-0.012-0.038-0.005-0.059c-0.005-0.047-0.008-0.094-0.013-0.141
		c-0.13-2.052-0.304-4.978-0.486-8.557c0-0.004,0-0.009,0-0.014c-0.004-0.007,0.004-0.01,0-0.018
		c-0.066-8.169-0.322-14.096-0.707-18.271c-0.001-0.014-0.003-0.026-0.007-0.038c-0.677-25.4-0.199-59.204,6.405-69.684
		c0,0-2.068-1.058-4.887-3.745c1.559,1.194,3.184,2.439,4.887,3.745c39.087,29.951,134.86-11.565,180.808-48.922
		c45.946-37.357,15.961-40.183-24.011-49.3s-94.777,27.332-116.736,27.034c-21.96-0.299-1.708-22.591,33.963-37.823
		c35.672-15.232,70.689,10.13,128.841-13.461c58.152-23.59,46.066-149.793,46.066-149.793
		c-32.068,31.804-111.658,46.438-121.17,34.621c-9.511-11.816,92.747-63.42,106.515-75.624
		C2103.504,566.868,2114.71,520.776,2064.57,466.395z"/>
	<path style="fill:#DFEBFD;" d="M648.905,860.44c-0.081-82.786,136.591-94.067,136.591-94.067s125.041,110.918,151.617,107.142
		c26.576-3.775-88.39-115.707-88.39-115.707c48.489-18.359,191.993,8.181,191.993,8.181s34.771,159.613,59.6,149.412
		c24.829-10.201-37.998-139.759-37.998-139.759c52.123,1.355,112.39,45.351,112.39,45.351
		c81.12,76.279-21.018,176.506-21.018,176.506s13.243,55.055,64.011,108.533l0.002,0.001c0,0,10.758,9.498,23.843,27.055
		l-13.139,3.572c-2.031-3.231-4.14-6.314-6.338-9.229c-0.007-0.025-0.02-0.04-0.042-0.052c-0.032-0.043-0.064-0.084-0.096-0.126
		c-1.452-1.786-3.531-4.322-6.1-7.404c-0.004-0.003-0.007-0.007-0.01-0.011c-0.002-0.009-0.011-0.007-0.013-0.015
		c-6.15-6.767-10.44-11.834-13.295-15.559c-0.01-0.012-0.018-0.023-0.023-0.036c-18.734-21.396-44.799-48.824-58.188-52.423
		c0,0,0.898-2.44,1.174-6.791c-0.375,2.166-0.765,4.424-1.174,6.791c-9.387,54.308-119.653,92.912-185.797,97.095
		s-43.64-20.913-17.702-58.765s98.675-49.509,116.502-66.432s-15.753-19.869-56.646-5.301
		c-40.894,14.568-50.421,62.014-116.144,86.783c-65.723,24.77-151.632-88.162-151.632-88.162
		c50.517,1.792,127.063-46.622,125.908-63.56c-1.155-16.938-124.413,18.299-144.999,18.721
		C693.204,972.608,648.986,943.226,648.905,860.44z"/>
	<g>
		<g>
			<path style="fill:#699FF0;" d="M2152.276,1207.249c0,34.608-3.12,68.497-9.112,101.386
				c-47.738,262.444-277.469,461.428-553.69,461.428c-229.741,0-427.313-137.633-514.777-334.947
				c-11.533-26-21.15-53.051-28.667-80.946c-12.645-46.831-19.379-96.093-19.379-146.92c0-41.569,4.51-82.079,13.057-121.074
				c23.385-106.669,77.023-202,151.472-276.562c21.109-21.161,43.917-40.653,68.188-58.251
				c92.726-67.271,206.777-106.937,330.107-106.937c14.313,0,28.502,0.536,42.538,1.596c19.802,1.483,39.314,3.985,58.498,7.455
				c131.011,23.746,246.236,92.85,328.82,190.456c16.65,19.678,31.973,40.52,45.822,62.38
				C2120.335,993.356,2152.276,1096.575,2152.276,1207.249z"/>
			<path style="fill:#4888E5;" d="M2152.272,1207.254c0,34.608-3.12,68.497-9.112,101.386
				c-6.188,34.022-15.436,66.974-27.453,98.564c-80.626,212.122-285.818,362.862-526.237,362.862
				c-95.836,0-186.07-23.951-265.049-66.189c-7.27-3.893-14.447-7.93-21.531-12.131c-68.384-40.529-127.458-95.135-173.199-159.832
				c-21.377-30.202-39.84-62.597-54.997-96.794c-11.533-26-21.15-53.051-28.667-80.946c63.575,15.199,163.941,31.458,284.243,23.808
				c20.893-1.318,42.383-3.367,64.398-6.271c77.486-10.204,161.347-30.974,247.699-68.002
				c204.811-87.825,342.607-263.67,422.781-397.389C2120.331,993.361,2152.272,1096.58,2152.272,1207.254z"/>
			<path style="fill:#A8D29F;" d="M2152.279,1207.247c0,34.612-3.123,68.503-9.114,101.388c-22.912-3.318-52.742-6.558-71.156-4.392
				c-33.177,3.903-66.354,72.21-134.662,74.894c-68.307,2.684-152.227-49.522-242.001-14.393
				c-89.775,35.129-136.614-1.952-152.227-27.323s39.033-83.92,34.085-109.291c-4.957-25.371,6.899-111.243,83.012-111.243
				s107.629-41.6,121.001-56.597c38.337-42.995,68.307-3.903,99.533-37.081c31.226-33.177-23.42-91.726,0-130.759
				c23.419-39.032,138.575-48.518,138.575-48.518C2102.27,941.973,2152.279,1068.77,2152.279,1207.247z"/>
			<path style="fill:#A8D29F;" d="M1322.585,1111.589c-27.323,38.476,9.758,118.493-13.661,159.477
				c-23.42,40.984-68.307,33.178-101.485,52.694c-28.806,16.939-40.35,86.837-132.74,111.359
				c-30.894-69.653-48.049-146.762-48.049-227.872c0-41.569,4.508-82.075,13.056-121.068c18.853-19.038,44.683-36.135,79.909-45.405
				c111.243-29.274,114.006-111.15,158.909-112.712C1387.856,924.259,1349.908,1073.103,1322.585,1111.589z"/>
			<path style="fill:#A8D29F;" d="M1742.185,899.281c0,0-68.308-13.662-105.388,9.758c-37.081,23.419-112.219,65.379-102.46,89.775
				c9.758,24.395,80.993,42.936,110.267,41.959c29.273-0.976,9.346-58.85,151.25-41.959
				C1831.824,1003.096,1832.342,924.042,1742.185,899.281z"/>
			<path style="fill:#7DB2FF;" d="M1690.51,653.477c-34.608,60.579-97.947,137.303-204.903,165.023
				c-129.055,33.435-238.833,9.277-294.427-8.887c21.109-21.161,43.917-40.653,68.188-58.251
				c92.726-67.271,206.777-106.937,330.107-106.937c14.313,0,28.502,0.536,42.538,1.596
				C1651.813,647.505,1671.326,650.007,1690.51,653.477z"/>
			<path style="fill:#3B7FD1;" d="M2115.707,1407.204c-80.626,212.122-285.818,362.862-526.237,362.862
				c-95.836,0-186.07-23.951-265.049-66.189c-7.27-3.893-14.447-7.93-21.531-12.131
				C1448.162,1681.15,1810.653,1631.519,2115.707,1407.204z"/>
			<path style="fill:#A8D29F;" d="M1417.141,1568.969c-29.862,21.778-36.978,88.71-56.079,97.978
				c-9.587,4.654-24.333,21.408-36.637,36.926c-77.548-41.467-144.253-100.573-194.73-171.963
				c33.785-23.447,97.134-63.05,141.082-64.131c0,0,21.964-0.258,38.244-44.875c6.415-17.588,13.293-33.188,21.253-44.927
				c12.254-18.062,27.061-26.989,46.708-19.945c8.423,3.017,13.716,7.732,17.69,13.674c11.368,16.929,12.079,43.814,44.093,69.732
				C1482.013,1476.448,1447.002,1547.189,1417.141,1568.969z"/>
		</g>
		<g>
			<path style="fill:#A8D29F;" d="M1844.319,812.714c0,0-5.88-105.778-135.999-124.172
				C1708.32,688.542,1703.521,812.714,1844.319,812.714z"/>
			<path style="fill:#A8D29F;" d="M1838.439,811.987c0,0,104.347,19.718,146.582-104.724
				C1985.021,707.263,1864.584,673.636,1838.439,811.987z"/>
			<path style="fill:#A8D29F;" d="M1839.879,767.862c0,0,46.303-37.484,8.393-100.711
				C1848.271,667.15,1790.18,706.471,1839.879,767.862z"/>
			<path style="fill:#A8D29F;" d="M1838.439,811.987c0,0-15.641,67.855-12.92,91.768h12.92c0,0-4.987-63.154,7.275-95.037
				L1838.439,811.987z"/>
		</g>
		<g>
			<path style="fill:#82B378;" d="M1982.517,978.391c0,0-2.782-50.053-64.354-58.757
				C1918.162,919.633,1915.891,978.391,1982.517,978.391z"/>
			<path style="fill:#82B378;" d="M1979.734,978.047c0,0,49.376,9.331,69.361-49.555
				C2049.096,928.492,1992.105,912.58,1979.734,978.047z"/>
			<path style="fill:#82B378;" d="M1980.415,957.167c0,0,21.909-17.737,3.971-47.656
				C1984.386,909.511,1956.897,928.118,1980.415,957.167z"/>
			<path style="fill:#82B378;" d="M1979.734,978.047c0,0-7.401,32.108-6.114,43.424h6.114c0,0-2.36-29.884,3.442-44.971
				L1979.734,978.047z"/>
		</g>
		<g>
			<path style="fill:#A8D29F;" d="M1768.177,858.533c0,0-1.747-31.429-40.408-36.894
				C1727.769,821.639,1726.342,858.533,1768.177,858.533z"/>
			<path style="fill:#A8D29F;" d="M1766.43,858.317c0,0,31.003,5.858,43.552-31.116
				C1809.981,827.201,1774.197,817.21,1766.43,858.317z"/>
			<path style="fill:#A8D29F;" d="M1766.857,845.206c0,0,13.757-11.137,2.493-29.923
				C1769.351,815.283,1752.091,826.966,1766.857,845.206z"/>
			<path style="fill:#A8D29F;" d="M1766.43,858.317c0,0-4.647,20.161-3.839,27.266h3.839c0,0-1.482-18.765,2.161-28.238
				L1766.43,858.317z"/>
		</g>
	</g>
	<g>
		<path style="fill:#FFB27D;" d="M2075.324,786.161c0,0-10.018-1.954-12.309,0s-13.156,12.994-10.83,16.617
			c2.326,3.624,13.48-3,15.8-3.625c2.319-0.625,8.803-3.158,8.803-3.158L2075.324,786.161z"/>
		<path style="fill:#35488B;" d="M2181.781,1140.356l10.74,3.999c0,0,46.646-64.696,52.389-121.617
			c1.026-10.162,0.684-20.008-1.534-29.1c0,0,0.456-2.604,1.254-7.207c0.368-2.148,0.824-4.734,1.341-7.698
			c1.518-8.689,3.604-20.578,5.989-34.116c5.488-31.152,12.599-70.976,18.123-100.252l-2.894-0.93l-31.31-10.1l-6.472-20.552
			l-23.313-6.137c0,0-5.209,10.188-9.864,58.315c-0.859,6.313-1.64,13.275-2.228,20.824c-1.814,23.041-1.946,51.625,2.219,84.303
			c1.069,8.365,2.42,17.001,4.095,25.874c1.228,6.505,1.411,15.371,0.894,25.549
			C2198.861,1068.042,2181.781,1140.356,2181.781,1140.356z"/>
		<path style="fill:#2C3A64;" d="M2194.004,885.785l50.626,100.646c0.368-2.148,0.824-4.734,1.341-7.698
			c1.518-8.689,3.604-20.578,5.989-34.116c5.488-31.152,12.599-70.976,18.123-100.252l-2.894-0.93l-31.31-10.1l-6.472-20.552
			l-23.313-6.137c0,0-5.209,10.188-9.864,58.315C2195.372,871.273,2194.592,878.235,2194.004,885.785z"/>
		<path style="fill:#35488B;" d="M2216.275,819.562l1.172-10.05c19.635,5.215,72.096-14.573,72.096-14.573
			s19.021,16.72,16.523,56.799c-1.219,19.562-3.445,102.688-5.771,127.287c-0.841,8.915-1.577,15.26-1.878,17.794
			c-0.006,0.012-0.006,0.018-0.006,0.024c-0.092,0.773,0.178,1.503,0.57,2.178c3.424,5.811,6.259,11.861,8.584,18.051
			c22.825,60.824-3.516,135.729-3.516,135.729l-6.835-2.755c0,0-14.99-83.36-27.169-120.188c-2.068-6.246-4.05-11.154-5.866-14.088
			c-5.296-8.547-10.21-22.512-14.671-39.122c-8.431-31.402-15.217-72.254-19.732-103.786
			C2229.154,872.893,2216.275,819.562,2216.275,819.562z"/>
		<path style="fill:#FFB27D;" d="M2075.324,786.161l1.464,9.835c0,0,0.649,0,1.788-0.081c3.576-0.244,12.272-0.732,22.105-1.789
			c14.792-1.462,32.348-4.063,39.337-8.37c10.646-6.501,28.12-26.414,39.498-46.326c0.325-0.487,0.569-0.974,0.813-1.462
			c5.933-10.566,10.077-21.05,10.402-29.42c0.244-5.121-0.325-9.509-1.382-13.329c-1.382-5.039-3.657-9.021-6.014-12.028
			c-0.325-0.488-0.65-0.975-1.138-1.382c-3.901-4.632-7.722-6.582-7.722-6.582c-1.95-0.814-4.063,0.163-6.257,2.519v0.081
			c-1.789,1.87-3.739,4.714-5.608,8.29c-0.081,0.081-0.163,0.163-0.163,0.244c-0.406,0.731-0.813,1.544-1.3,2.438
			c-0.163,0.163-0.244,0.407-0.325,0.569c-0.895,1.869-1.788,3.82-2.683,5.852c-9.996,21.781-20.643,54.778-29.502,64.611
			c-3.819,4.227-21.293,12.517-35.19,18.693C2083.452,782.911,2075.324,786.161,2075.324,786.161z"/>
		<path style="fill:#FFB27D;" d="M2178.766,697.661c6.164,2.858,13.607,4.805,22.612,5.296c33.757,1.85,41.419-27.742,42.813-47.381
			c-4.866-1.763-9.127-1.596-11.582-1.464c-2.394,0.131-4.893,0.377-6.953,0.631c-4.13-2.157-11.548-12.635-15.835-30.162
			l-1.455,0.675l-24.357,11.451c0,0,2.587,7.926,4.498,15.51c1.49,5.936,2.561,11.67,1.666,13.274
			c-1.921,0.781-3.069,1.271-3.069,1.271s0,0.009-0.008,0.026C2186.85,667.412,2181.554,680.906,2178.766,697.661z"/>
		<path style="fill:#F99746;" d="M2170.322,719.809c0.254,0.675,0.535,1.333,0.842,2.008c8.549,18.413,24.374,94.684,24.374,94.684
			c-2.253,13.713,103.058-2.692,103.33-15.177c3.708-13.24-13.161-34.51-22.675-45.181c-1.191-1.342-2.262-2.78-3.19-4.296
			c-2.351-3.805-3.841-8.102-4.314-12.591c-1.868-17.699-1.157-34.287-1.314-44.373l-0.001-0.001
			c-1.858-1.376-3.656-2.648-5.33-3.858c-2.561-1.868-4.822-3.612-6.488-5.383c-1.833-1.929-2.981-3.902-3.113-6.129
			c-0.096-1.684-0.043-3.411,0.132-5.138c0.079-0.815,0.185-1.631,0.308-2.446c1.314-8.566,4.892-16.334,4.892-16.334
			c-9.057-3.665-25.163-1.482-25.163-1.482s0.018,0.894,0.025,2.358c0.053,5.883,0,20.99-1.885,23.849
			c-2.358,3.56-45.505,19.158-47.784,14.327c-2.245-4.752,3.901-27.014,4.13-27.855c0.008-0.018,0.008-0.026,0.008-0.026
			c-14.449,5.673-19.613,10.434-19.613,10.434C2176.197,682.844,2163.588,701.949,2170.322,719.809z"/>
		<path style="fill:#2C3A64;" d="M2199.386,560.71c0.053-1.463,1.186-17.233,25.206-18.057c0,0-11.812,1.408-13.853,6.601
			c0,0,8.043-6.416,14.593-4.352c6.55,2.064,10.396,13.539,10.436,17.313c0.038,3.775-3.601,15.942-7.758,16.976
			c-1.574,0.392-3.388,0.287-5.035,0.006c1.106,1.727,2.19,3.632,3.227,5.759c9.585,19.675-0.3,38.904-8.414,36.78
			c-5.204-1.362-6.677,7.518-6.677,7.518l-50.56-40.932C2160.551,588.322,2179.121,549.896,2199.386,560.71z"/>
		<path style="fill:#ED985F;" d="M2184.008,636.712c0,0,2.59,7.918,4.498,15.51c14.237-3.972,18.561-18.938,19.861-26.961
			L2184.008,636.712z"/>
		<path style="fill:#FFB27D;" d="M2181.01,645.097c0,0,34.063-7.883,28.826-29.02c-5.235-21.136-4.365-36.389-26.334-32.25
			c-21.969,4.14-24.181,13.248-24.149,20.728C2159.385,612.035,2172.015,646.602,2181.01,645.097z"/>
		<path style="fill:#2C3A64;" d="M2157.438,592.555c3.662-7.661,7.972-7.253,10.667-5.894c16.005-14.808,31.704-2.71,31.704-2.71
			c6.042,14.597,19.138,20.562,19.138,20.562s-5.233,5.358-20.399,5.24c-4.633-0.036-9.29-2.163-13.528-5.094
			c8.175,8.234,17.761,13.246,17.761,13.246c-18.986-3.633-31.717-25.612-33.021-27.947c-1.608,2.375-4.685,7.431-4.944,11.7
			c-0.352,5.802,1.645,17.068-1.678,17.495C2163.137,619.152,2151.945,604.044,2157.438,592.555z"/>
		<path style="fill:#F99746;" d="M2167.486,677.193c0,0-8.201,14.307-9.429,17.988c0,0,10.636-0.409,14.931,7.772
			C2172.988,702.954,2174.018,679.122,2167.486,677.193z"/>
		<path style="fill:#ED7D2B;" d="M2223.895,790.873c20.771-0.219,38.358-21.788,49.108-39.026
			c-2.351-3.805-3.841-8.102-4.314-12.591c-1.868-17.699-1.157-34.287-1.314-44.373l-0.001-0.001
			c-1.858-1.376-3.656-2.648-5.33-3.858c-2.561-1.868-4.822-3.612-6.488-5.383C2238.545,714.39,2195.731,791.17,2223.895,790.873z"
			/>
		<path style="fill:#FFB27D;" d="M2145.382,802.172l2.845,10.402c0,0,3.576-0.65,9.266-1.707c1.706-0.325,2.682-0.568,2.682-0.568
			c4.551-0.893,9.997-2.113,15.93-3.414h0.081c10.159-2.438,21.537-5.363,31.128-8.616c6.745-2.356,12.598-4.875,16.579-7.395
			c0.406-0.244,0.731-0.488,1.138-0.813c9.509-6.907,20.807-27.225,29.584-49.007c1.219-3.007,2.356-6.014,3.494-8.94
			c4.064-10.892,7.314-21.619,9.266-30.884c1.219-5.526,2.031-10.566,2.194-14.711c0.081-1.462,0.162-2.843,0.081-4.145
			c-0.163-23.568-11.866-26.819-11.866-26.819c-0.243-0.081-0.487-0.163-0.813-0.243c-2.032-0.325-4.146,1.056-6.339,3.738
			c-2.764,3.332-5.689,8.777-8.697,15.36c-4.632,10.484-9.508,24.057-14.06,37.549c-2.52,7.395-4.958,14.792-7.396,21.618
			c-1.382,4.145-2.764,8.046-4.063,11.623c-2.52,6.827-4.796,12.353-6.827,15.848c-1.301,2.275-5.039,5.445-9.997,9.021
			c-8.614,6.258-21.212,13.817-32.184,19.993c-4.552,2.602-8.858,4.958-12.435,6.909
			C2149.202,800.14,2145.382,802.172,2145.382,802.172z"/>
		<path style="fill:#F99746;" d="M2241.963,674.444c15.646-4.313,27.715,7.903,27.715,7.903
			c-0.196-23.531-11.909-26.753-11.909-26.753C2253.057,653.644,2247.596,661.805,2241.963,674.444z"/>
		<path style="fill:#233862;" d="M2264.311,1158.386h54.091c0,0,1.296-8.243-1.529-14.497c-2.707-6.002-6.947-8.729-5.933-15.99
			c-3.437,3.538-9.038,7.501-16.857,6.449c-0.959,1.554-6.186,9.867-9.386,12.166
			C2281.161,1149.054,2265.399,1148.148,2264.311,1158.386z"/>
		<path style="fill:#233862;" d="M2148.172,1158.386h54.091c0,0,2.022-8.627-1.529-14.497c-3.144-5.194-1.938-8.154,0.39-12.451
			c-2.45,1.003-5.62,1.916-9.11,1.716c-2.694-0.155-5.545-1.378-8.044-2.829c-2.328,2.654-12.296,13.951-15.411,16.189
			C2165.022,1149.054,2149.262,1148.148,2148.172,1158.386z"/>
		<path style="fill:#C94C43;" d="M2142.165,850.369l-12.854-31.356c-1.675-4.09-6.164-6.214-10.33-5.065
			c-4.257-8.006-10.121-14.512-16.77-19.078c-7.006-4.823-14.87-7.481-22.634-7.447c-4.1,0.017-8.181,0.792-12.08,2.391
			c-18.277,7.489-26.466,30.581-19.76,53.257l-1,0.408c0,0-3.124-0.217-8.364-0.217c-16.553,0-54.182,2.199-80.582,20.535
			c0,0-1.657,1.766-1.724,4.465c-0.033,0.892,0.116,1.891,0.558,2.958c0,0,42.378-27.441,81.573,0.758
			c2.408,1.725,4.74,3.324,7.015,4.807l3.516,8.581c5.831,14.229,22.234,21.093,36.463,15.262l35.896-14.712l7.481-3.065
			C2141.24,877.661,2147.363,863.04,2142.165,850.369z M2072.57,824.953l-14.62,5.998c-3.974,1.625-6.064,5.948-5.04,10.005
			l-1.565,0.642c-5.948-20.66,1.308-41.495,17.627-48.184c2.291-0.941,4.648-1.558,7.031-1.858
			c7.515-0.991,15.345,1.033,22.384,5.423c6.69,4.165,12.654,10.472,16.953,18.386l-2.157,0.883
			c-2.116-3.599-6.631-5.215-10.605-3.59l-14.628,5.998c-1.142-2.79-3.857-4.482-6.706-4.482c-0.9,0-1.825,0.175-2.708,0.533
			l-2.024,0.833C2072.838,817.047,2071.063,821.279,2072.57,824.953z"/>
		<path style="fill:#B23B38;" d="M2045.213,876.786c-2.274-1.483-4.606-3.082-7.015-4.807c-39.195-28.199-81.573-0.758-81.573-0.758
			c-0.441-1.066-0.591-2.066-0.558-2.958c5.931-3.907,28.165-16.903,55.715-12.463
			C2044.063,861.008,2049.903,865.498,2045.213,876.786z"/>
		<path style="fill:#B23B38;" d="M2128.569,882.851l-7.481,3.065c11.213-6.123-2.674-31.989-10.796-49.067
			c-8.123-17.078-20.41-9.272-20.41-9.272c-2.815-5.723-8.848-5.415-8.848-5.415c-0.316-5.515-4.523-6.623-4.523-6.623l2.024-0.833
			c0.883-0.358,1.808-0.533,2.708-0.533c2.849,0,5.564,1.691,6.706,4.482l14.628-5.998c3.975-1.624,8.489-0.008,10.605,3.59
			l2.157-0.883c-4.299-7.914-10.263-14.221-16.953-18.386c-7.039-4.39-14.869-6.414-22.384-5.423
			c1.175-0.95,2.441-2.274,3.574-4.132c7.764-0.034,15.628,2.624,22.634,7.447c6.648,4.565,12.513,11.071,16.77,19.078
			c4.166-1.15,8.655,0.975,10.33,5.065l12.854,31.356C2147.363,863.04,2141.24,877.661,2128.569,882.851z"/>
		<path style="fill:#FFB27D;" d="M2111.735,812.25c5.201,2.193,12.516,9.833,24.22,5.202c8.371-3.252,17.229-5.527,21.537-6.584
			c1.706-0.325,2.682-0.568,2.682-0.568l-4.633-13.492c0,0-0.162,0.082-0.568,0.163c-3.007,0.649-18.286,3.901-25.438,2.276
			c-8.046-1.869-21.537,7.802-21.537,7.802S2106.534,810.137,2111.735,812.25z"/>
		<path style="fill:#FFFFFF;" d="M1964.9,893.869c0-4.881-8.838-19.947-8.838-19.947s-8.838,15.066-8.838,19.947
			c0,4.881,3.957,8.838,8.838,8.838S1964.9,898.75,1964.9,893.869z"/>
	</g>
	<g id="man_6_">
		<g>
			<path style="fill:#2C3A64;" d="M2656.48,1722.585c0,0,10.238,9.488,8.24,16.23c-1.998,6.741-11.236,11.236-12.485,19.477
				c-1.248,8.239-6.242,12.734-10.736,12.734c-4.495,0-21.429,0-21.429,0s-3.309-5.799,4.682-7.547
				c7.99-1.747,11.004-11.431,10.504-20.42c-0.499-8.989,0.749-20.975,0.749-20.975l16.979-3.995L2656.48,1722.585z"/>
			<path style="fill:#2C3A64;" d="M2530.882,1748.455c0,0,2.497,19.976-1.997,22.224c-4.495,2.247-58.18,1.498-58.18,1.498
				s0-6.742,9.238-8.24c9.239-1.498,25.47-6.991,28.216-19.227C2510.906,1732.475,2530.882,1748.455,2530.882,1748.455z"/>
			<path style="fill:#35488B;" d="M2482.319,1443.421c0,0,3.034,37.853,6.6,83.353c4.847,61.808,10.675,137.729,11.251,152.111
				c0.997,24.975,4.997,64.924,4.997,64.924s9.483,9.491,28.466,5.491c0,0,16.914-57.029,21.746-117.368
				c0.074-0.989,0.149-1.985,0.225-2.982c4.494-61.426,11.483-190.771,11.483-190.771L2482.319,1443.421z"/>
			<path style="fill:#2C3A64;" d="M2482.319,1443.421c0,0,3.034,37.853,6.6,83.353l66.46,105.158
				c0.074-0.989,0.149-1.985,0.225-2.982c4.494-61.426,11.483-190.771,11.483-190.771L2482.319,1443.421z"/>
			<path style="fill:#35488B;" d="M2496.174,1447.916c0,0,54.684,137.085,90.641,201.507c35.957,64.423,47.193,82.4,47.193,82.4
				s20.6-8.239,22.473-13.858c0,0-13.75-124.37-37.829-154.688c-13.606-17.132-29.589-68.543-30.339-86.521
				c-0.749-17.978-4.869-53.56-4.869-53.56L2496.174,1447.916z"/>
		</g>
		<path style="fill:#FFB27D;" d="M2388.857,1428.943c0,0-19.297,9.263-21.895,11.64s-9.008,14.048-8.516,14.927
			c0.492,0.881,1.452,1.152,3.202-0.058c1.749-1.209,6.657-6.264,6.837-5.325c0.181,0.938-13.1,16.566-10.751,19.873
			c2.349,3.308,15.663,2.33,23.266-3.077s15.191-25.282,16.335-26.368C2407.03,1431.352,2388.857,1428.943,2388.857,1428.943z"/>
		<path style="fill:#ED7D2B;" d="M2387.988,1438.868c-5.357-4.661-5.498-5.841-5.498-5.841s34.218-59.17,37.185-64.861
			c2.966-5.69,21.305-94.555,21.305-94.555l63.399-18.383c0,0-44.657,115.476-52.456,129.747
			c-12.889,23.583-54.961,58.292-54.961,58.292S2392.196,1442.528,2387.988,1438.868z"/>
		<path style="fill:#FFB27D;" d="M2472.084,1232.104c0,0-22.312,39.257-44.12,44.381c0,0,0.908-13.185,6.218-22.207
			c-2.175-2.564-4.084-4.921-5.736-7.029c-5.49-7.035-8.101-11.341-8.101-11.341l7.401-19.898l5.022-13.5
			c2.413,4.381,5.074,8.115,7.847,11.308C2454.909,1230.25,2472.084,1232.104,2472.084,1232.104z"/>
		<path style="fill:#ED975D;" d="M2440.615,1213.817c0,0,2.663,19.672-12.17,33.432c-5.49-7.035-8.101-11.341-8.101-11.341
			l7.401-19.898C2435.683,1213.592,2440.615,1213.817,2440.615,1213.817z"/>
		<path style="fill:#FFB27D;" d="M2414.465,1238.809c0,0,33.337-12.996,24.924-33.632s-9.776-36.211-31.417-28.785
			c-21.64,7.425-22.539,16.975-21.406,24.546C2387.698,1208.508,2405.576,1241.658,2414.465,1238.809z"/>
		<path style="fill:#F99746;" d="M2586.673,1433.557c-13.443,19.331-113.996,45.163-112.794,31.786
			c0.453-5.126,1.067-14.151-0.014-26.394c-0.254-2.869-0.614-5.914-1.068-9.117c-2.563-17.596-8.624-40.197-22.161-66.377
			c-1.015-1.963-2.069-3.938-3.164-5.94c-5.58-10.133-10.319-20.84-13.938-31.319c-6.969-20.132-9.785-39.396-6.261-51.985
			c0.013-0.066,0.026-0.12,0.053-0.174c21.014-9.719,29.157-47.405,29.157-47.405s71.702,12.869,111.873,108.442
			c0,0,3.858,10.493,8.264,24.737c5.354,17.275,11.521,40.05,12.589,56.297C2589.73,1423.824,2589.089,1430.072,2586.673,1433.557z"
			/>
		<path style="fill:#2B478B;" d="M2444.174,1166.844c0.233-0.461,0.912-0.954,2.567-1.46c0,0-1.551-0.521-3.356-0.125
			c-0.935-2.284-3.21-6.173-7.478-6.203c0,0,2.446,0.637,3.349,3.087c-5.847-3.706-16.686-4.782-43.744,4.23
			c-35.661,11.878-17.845,32.579-12.439,34.239c5.404,1.659,15.354-8.991,24.304-10.446c8.949-1.454,13.79,11.012,17.202,12.046
			s1.472-1.803,5.044-4.644s5.625,3.843,5.548,8.536c-0.078,4.693,6.888,9.144,6.888,9.144s0,0,4.086-7.494
			c4.085-7.495,2.974-34.701-0.929-39.598C2444.869,1167.724,2444.525,1167.284,2444.174,1166.844z"/>
		<path style="fill:#ED7D2B;" d="M2589.209,1416.107c-86.521-26.099-100.285-129.255-100.285-129.255s49.262,37.647,87.696,72.958
			C2581.974,1377.086,2588.142,1399.86,2589.209,1416.107z"/>
		<path style="fill:#FFB27D;" d="M2612.932,1419.494c0,0-1.951,16.369-1.48,19.04c0.472,2.671,3.589,10.617,4.364,10.661
			c0.774,0.043,3.128,0.139,3.064-1.498s-1.126-3.166-0.441-2.896s0.882,6.449,4.001,6.289c3.12-0.16,12.307-3.623,11.933-10.799
			s-10.157-20.319-10.391-21.512C2622.004,1408.677,2612.932,1419.494,2612.932,1419.494z"/>
		<path style="fill:#F99746;" d="M2618.114,1422.256c-6.864,3.146-9.413-0.063-9.413-0.063s-39.984-66.768-44.195-72.137
			c-4.212-5.369-78.023-37.044-78.023-37.044s-30.039-11.482-31.227-29.704c-1.031-15.835,7.958-25.563,17.803-31.431
			c11.731-6.992,26.575-5.963,37.361,2.414c24.213,18.804,72.212,56.628,79.937,66.884c17.192,22.828,36.248,94.385,36.248,94.385
			S2623.506,1419.785,2618.114,1422.256z"/>
		<g>
			<path style="fill:#4A75CB;" d="M2446.24,1467.533l-17.996,17.979l-0.249-0.156l-27.009-16.942c0,0,13.977,4.512,15.867,3.985
				c1.781-0.497,21.306-7.206,25.908-6.647c0.281,0.034,0.508,0.097,0.671,0.188
				C2446.24,1467.533,2446.24,1467.533,2446.24,1467.533z"/>
			<path style="fill:#E58638;" d="M2427.432,1490.394c-0.723-0.156-2.864-0.664-5.781-1.411c-8.386-2.147-23.172-6.266-29.011-9.644
				c-5.237-3.03-32.907-19.119-51.972-30.42c7.604-4.066,15.107-4.639,21.396-3.849c22.256,13.064,51.334,30.215,54.893,32.717
				c5.854,4.118,13.832,9.098,13.832,9.098s-0.031,0.226-0.115,0.566C2430.404,1488.557,2429.574,1490.854,2427.432,1490.394z"/>
			<path style="fill:#739AF0;" d="M2427.432,1490.394c-0.723-0.156-2.864-0.664-5.781-1.411c-8.386-2.147-23.172-6.266-29.011-9.644
				c-5.237-3.03-32.907-19.119-51.972-30.42c-9.572-5.674-16.976-10.142-18.275-11.142c-3.889-2.99-11.378-10.465-9.537-11.875
				c1.844-1.41,5.434,0.009,6.785-0.199c0.019-0.003,0.037-0.006,0.058-0.01c0.315-0.049,0.838-0.131,1.558-0.174
				c2.571-0.153,7.669,0.202,14.93,4.394c0,0,11.52,6.728,25.879,15.157c22.256,13.064,51.334,30.215,54.893,32.717
				c5.854,4.118,13.832,9.098,13.832,9.098s-0.031,0.226-0.115,0.566C2430.404,1488.557,2429.574,1490.854,2427.432,1490.394z"/>
			<path style="fill:#4A75CB;" d="M2427.432,1490.394c-0.723-0.155-2.864-0.664-5.781-1.411c0.38-3.326-1.946-5.975-1.946-5.975
				l10.971,4.443C2430.404,1488.556,2429.575,1490.854,2427.432,1490.394z"/>
			<g style="opacity:0.5;">
				<g>
					<path style="fill:#4A75CB;" d="M2403.659,1476.259L2403.659,1476.259c-0.171-0.101-0.228-0.323-0.127-0.494l0.194-0.329
						c0.102-0.171,0.323-0.229,0.494-0.127l0,0c0.172,0.101,0.229,0.323,0.127,0.494l-0.194,0.329
						C2404.053,1476.303,2403.83,1476.36,2403.659,1476.259z"/>
					<path style="fill:#4A75CB;" d="M2402.056,1475.312L2402.056,1475.312c-0.171-0.102-0.228-0.324-0.127-0.495l0.194-0.329
						c0.102-0.171,0.324-0.228,0.494-0.127l0,0c0.172,0.102,0.229,0.324,0.127,0.495l-0.193,0.329
						C2402.449,1475.355,2402.227,1475.412,2402.056,1475.312z"/>
					<path style="fill:#4A75CB;" d="M2400.453,1474.363L2400.453,1474.363c-0.172-0.101-0.229-0.323-0.128-0.494l0.195-0.329
						c0.101-0.171,0.323-0.228,0.494-0.127l0,0c0.171,0.101,0.228,0.323,0.127,0.494l-0.194,0.329
						C2400.846,1474.407,2400.623,1474.465,2400.453,1474.363z"/>
					<path style="fill:#4A75CB;" d="M2398.85,1473.416L2398.85,1473.416c-0.171-0.101-0.229-0.323-0.127-0.494l0.194-0.329
						c0.101-0.171,0.323-0.229,0.495-0.127l0,0c0.17,0.101,0.228,0.323,0.127,0.494l-0.195,0.329
						C2399.243,1473.46,2399.021,1473.518,2398.85,1473.416z"/>
					<path style="fill:#4A75CB;" d="M2397.246,1472.469L2397.246,1472.469c-0.171-0.102-0.228-0.324-0.127-0.495l0.194-0.329
						c0.102-0.171,0.324-0.228,0.495-0.127l0,0c0.171,0.102,0.228,0.324,0.127,0.494l-0.195,0.33
						C2397.64,1472.512,2397.417,1472.569,2397.246,1472.469z"/>
					<path style="fill:#4A75CB;" d="M2395.643,1471.521L2395.643,1471.521c-0.17-0.101-0.228-0.323-0.127-0.494l0.195-0.329
						c0.101-0.171,0.323-0.229,0.494-0.127l0,0c0.171,0.101,0.229,0.323,0.127,0.494l-0.194,0.329
						C2396.037,1471.564,2395.814,1471.622,2395.643,1471.521z"/>
					<path style="fill:#4A75CB;" d="M2394.04,1470.573L2394.04,1470.573c-0.171-0.102-0.228-0.323-0.127-0.495l0.194-0.328
						c0.101-0.172,0.324-0.229,0.494-0.128l0,0c0.171,0.102,0.229,0.324,0.127,0.495l-0.194,0.329
						C2394.434,1470.617,2394.211,1470.674,2394.04,1470.573z"/>
					<path style="fill:#4A75CB;" d="M2392.437,1469.625L2392.437,1469.625c-0.171-0.101-0.228-0.323-0.127-0.494l0.194-0.329
						c0.102-0.171,0.324-0.228,0.495-0.127l0,0c0.171,0.101,0.228,0.323,0.127,0.494l-0.194,0.329
						C2392.83,1469.669,2392.607,1469.727,2392.437,1469.625z"/>
					<path style="fill:#4A75CB;" d="M2390.834,1468.678L2390.834,1468.678c-0.171-0.102-0.229-0.323-0.128-0.494l0.195-0.329
						c0.101-0.171,0.323-0.229,0.494-0.128l0,0c0.171,0.102,0.228,0.324,0.127,0.495l-0.194,0.329
						C2391.227,1468.722,2391.005,1468.779,2390.834,1468.678z"/>
				</g>
				<g>
					<path style="fill:#4A75CB;" d="M2371.942,1457.512L2371.942,1457.512c-0.171-0.102-0.228-0.324-0.127-0.495l0.194-0.329
						c0.102-0.171,0.324-0.228,0.495-0.127l0,0c0.171,0.102,0.228,0.324,0.127,0.494l-0.194,0.33
						C2372.336,1457.555,2372.113,1457.612,2371.942,1457.512z"/>
					<path style="fill:#4A75CB;" d="M2370.34,1456.563L2370.34,1456.563c-0.172-0.101-0.229-0.323-0.127-0.494l0.194-0.329
						c0.101-0.171,0.323-0.229,0.494-0.127l0,0c0.171,0.101,0.229,0.323,0.127,0.494l-0.194,0.329
						C2370.733,1456.607,2370.51,1456.665,2370.34,1456.563z"/>
					<path style="fill:#4A75CB;" d="M2368.736,1455.616L2368.736,1455.616c-0.171-0.102-0.229-0.323-0.127-0.495l0.194-0.328
						c0.101-0.172,0.323-0.229,0.495-0.128l0,0c0.17,0.102,0.228,0.324,0.127,0.495l-0.195,0.329
						C2369.13,1455.66,2368.907,1455.717,2368.736,1455.616z"/>
					<path style="fill:#4A75CB;" d="M2367.133,1454.668L2367.133,1454.668c-0.17-0.101-0.228-0.323-0.127-0.494l0.194-0.329
						c0.102-0.171,0.324-0.228,0.495-0.127l0,0c0.171,0.101,0.228,0.323,0.127,0.494l-0.195,0.329
						C2367.526,1454.712,2367.304,1454.77,2367.133,1454.668z"/>
					<path style="fill:#4A75CB;" d="M2365.53,1453.721L2365.53,1453.721c-0.171-0.101-0.229-0.323-0.128-0.494l0.195-0.329
						c0.101-0.171,0.323-0.229,0.494-0.127l0,0c0.171,0.101,0.229,0.323,0.127,0.494l-0.194,0.329
						C2365.924,1453.765,2365.701,1453.822,2365.53,1453.721z"/>
					<path style="fill:#4A75CB;" d="M2363.927,1452.773L2363.927,1452.773c-0.171-0.102-0.228-0.324-0.127-0.495l0.194-0.329
						c0.102-0.171,0.323-0.228,0.494-0.127l0,0c0.171,0.102,0.229,0.324,0.127,0.495l-0.194,0.329
						C2364.32,1452.817,2364.098,1452.874,2363.927,1452.773z"/>
					<path style="fill:#4A75CB;" d="M2362.323,1451.825L2362.323,1451.825c-0.171-0.101-0.228-0.323-0.127-0.494l0.194-0.329
						c0.102-0.171,0.324-0.229,0.495-0.127l0,0c0.171,0.101,0.228,0.323,0.127,0.494l-0.194,0.329
						C2362.717,1451.869,2362.494,1451.927,2362.323,1451.825z"/>
					<path style="fill:#4A75CB;" d="M2360.721,1450.878L2360.721,1450.878c-0.171-0.101-0.229-0.323-0.127-0.494l0.194-0.329
						c0.101-0.171,0.323-0.229,0.494-0.127l0,0c0.171,0.101,0.228,0.323,0.127,0.494l-0.194,0.329
						C2361.114,1450.922,2360.892,1450.979,2360.721,1450.878z"/>
					<path style="fill:#4A75CB;" d="M2359.117,1449.93L2359.117,1449.93c-0.171-0.101-0.229-0.323-0.127-0.494l0.194-0.329
						c0.101-0.171,0.323-0.228,0.495-0.127l0,0c0.17,0.101,0.228,0.323,0.127,0.495l-0.195,0.328
						C2359.511,1449.975,2359.288,1450.031,2359.117,1449.93z"/>
				</g>
				<g>
					<path style="fill:#4A75CB;" d="M2352.913,1446.263L2352.913,1446.263c-0.171-0.101-0.228-0.323-0.127-0.494l0.194-0.329
						c0.102-0.171,0.324-0.229,0.494-0.127l0,0c0.172,0.101,0.229,0.323,0.127,0.494l-0.194,0.329
						C2353.307,1446.307,2353.084,1446.364,2352.913,1446.263z"/>
					<path style="fill:#4A75CB;" d="M2356.048,1448.116L2356.048,1448.116c-0.171-0.102-0.228-0.324-0.127-0.495l0.194-0.329
						c0.102-0.171,0.324-0.228,0.494-0.127l0,0c0.172,0.102,0.229,0.324,0.128,0.495l-0.195,0.329
						C2356.441,1448.16,2356.219,1448.217,2356.048,1448.116z"/>
					<path style="fill:#4A75CB;" d="M2351.311,1445.315L2351.311,1445.315c-0.172-0.101-0.229-0.323-0.127-0.494l0.193-0.329
						c0.102-0.171,0.324-0.229,0.495-0.127l0,0c0.171,0.101,0.228,0.323,0.127,0.494l-0.194,0.329
						C2351.703,1445.359,2351.481,1445.416,2351.311,1445.315z"/>
					<path style="fill:#4A75CB;" d="M2349.707,1444.367L2349.707,1444.367c-0.171-0.101-0.229-0.323-0.127-0.494l0.194-0.329
						c0.101-0.171,0.323-0.228,0.494-0.127l0,0c0.171,0.101,0.229,0.323,0.128,0.495l-0.195,0.328
						C2350.101,1444.412,2349.878,1444.469,2349.707,1444.367z"/>
					<path style="fill:#4A75CB;" d="M2348.104,1443.42L2348.104,1443.42c-0.171-0.101-0.229-0.323-0.127-0.494l0.194-0.329
						c0.102-0.171,0.323-0.229,0.495-0.127l0,0c0.17,0.101,0.228,0.323,0.127,0.494l-0.195,0.329
						C2348.497,1443.464,2348.274,1443.521,2348.104,1443.42z"/>
					<path style="fill:#4A75CB;" d="M2346.5,1442.473L2346.5,1442.473c-0.17-0.102-0.228-0.324-0.127-0.495l0.195-0.329
						c0.101-0.171,0.323-0.228,0.494-0.127l0,0c0.171,0.102,0.228,0.324,0.127,0.495l-0.194,0.329
						C2346.895,1442.517,2346.672,1442.573,2346.5,1442.473z"/>
					<path style="fill:#4A75CB;" d="M2344.897,1441.524L2344.897,1441.524c-0.171-0.101-0.229-0.323-0.127-0.494l0.194-0.329
						c0.101-0.171,0.323-0.229,0.494-0.127l0,0c0.171,0.101,0.229,0.323,0.127,0.494l-0.194,0.329
						C2345.291,1441.568,2345.068,1441.626,2344.897,1441.524z"/>
					<path style="fill:#4A75CB;" d="M2343.294,1440.577L2343.294,1440.577c-0.171-0.101-0.228-0.323-0.127-0.494l0.194-0.329
						c0.102-0.171,0.324-0.229,0.495-0.127l0,0c0.171,0.101,0.228,0.323,0.127,0.494l-0.194,0.329
						C2343.688,1440.621,2343.465,1440.678,2343.294,1440.577z"/>
					<path style="fill:#4A75CB;" d="M2341.69,1439.63L2341.69,1439.63c-0.171-0.102-0.228-0.324-0.126-0.495l0.193-0.329
						c0.102-0.171,0.324-0.228,0.495-0.127l0,0c0.171,0.102,0.229,0.323,0.127,0.495l-0.194,0.328
						C2342.084,1439.674,2341.862,1439.73,2341.69,1439.63z"/>
					<path style="fill:#4A75CB;" d="M2340.088,1438.682L2340.088,1438.682c-0.171-0.101-0.229-0.323-0.127-0.494l0.194-0.329
						c0.101-0.171,0.323-0.229,0.494-0.127l0,0c0.171,0.101,0.229,0.323,0.128,0.494l-0.195,0.329
						C2340.481,1438.726,2340.259,1438.783,2340.088,1438.682z"/>
					<path style="fill:#4A75CB;" d="M2338.517,1437.753L2338.517,1437.753c-0.171-0.101-0.229-0.323-0.127-0.494l0.194-0.329
						c0.102-0.171,0.323-0.229,0.494-0.127l0,0c0.171,0.101,0.229,0.323,0.127,0.494l-0.193,0.329
						C2338.91,1437.797,2338.688,1437.854,2338.517,1437.753z"/>
					<path style="fill:#4A75CB;" d="M2336.913,1436.806L2336.913,1436.806c-0.171-0.102-0.228-0.323-0.127-0.495l0.194-0.328
						c0.102-0.172,0.324-0.229,0.494-0.128l0,0c0.172,0.102,0.229,0.324,0.128,0.495l-0.194,0.329
						C2337.307,1436.85,2337.084,1436.906,2336.913,1436.806z"/>
					<path style="fill:#4A75CB;" d="M2335.311,1435.857L2335.311,1435.857c-0.172-0.101-0.229-0.323-0.127-0.494l0.193-0.329
						c0.102-0.171,0.324-0.228,0.495-0.127l0,0c0.171,0.101,0.228,0.323,0.127,0.494l-0.194,0.329
						C2335.703,1435.901,2335.481,1435.959,2335.311,1435.857z"/>
					<path style="fill:#4A75CB;" d="M2322.986,1427.594c-0.15,0.189-0.402,0.254-0.62,0.176c-0.056-0.02-0.107-0.048-0.155-0.086
						l-2.513-1.99c0.315-0.049,0.838-0.131,1.558-0.174l1.642,1.299C2323.135,1427.006,2323.176,1427.355,2322.986,1427.594z"/>
					<path style="fill:#4A75CB;" d="M2363.336,1454.315l-0.486-0.288c-0.322-0.19-0.43-0.609-0.24-0.931l1.201-2.031
						c0.19-0.322,0.609-0.43,0.931-0.239l0.487,0.288c0.322,0.19,0.43,0.609,0.239,0.931l-1.2,2.031
						C2364.077,1454.398,2363.658,1454.506,2363.336,1454.315z"/>
					<path style="fill:#4A75CB;" d="M2366.521,1456.198l-0.487-0.288c-0.321-0.19-0.43-0.609-0.239-0.931l1.201-2.031
						c0.189-0.322,0.608-0.43,0.93-0.239l0.488,0.288c0.321,0.19,0.43,0.609,0.239,0.931l-1.201,2.031
						C2367.262,1456.28,2366.844,1456.389,2366.521,1456.198z"/>
				</g>
				<g>
					<path style="fill:#4A75CB;" d="M2386.121,1465.893L2386.121,1465.893c-0.171-0.102-0.229-0.324-0.127-0.495l0.194-0.329
						c0.101-0.171,0.323-0.228,0.495-0.127l0,0c0.17,0.102,0.228,0.324,0.127,0.494l-0.195,0.33
						C2386.515,1465.936,2386.292,1465.993,2386.121,1465.893z"/>
					<path style="fill:#4A75CB;" d="M2384.518,1464.944L2384.518,1464.944c-0.171-0.101-0.228-0.323-0.127-0.494l0.194-0.329
						c0.102-0.171,0.323-0.229,0.495-0.127l0,0c0.171,0.101,0.228,0.323,0.127,0.494l-0.194,0.329
						C2384.911,1464.988,2384.688,1465.046,2384.518,1464.944z"/>
					<path style="fill:#4A75CB;" d="M2382.915,1463.997L2382.915,1463.997c-0.171-0.102-0.229-0.323-0.128-0.495l0.195-0.328
						c0.101-0.172,0.323-0.229,0.494-0.128l0,0c0.171,0.102,0.229,0.324,0.127,0.495l-0.194,0.329
						C2383.308,1464.041,2383.086,1464.098,2382.915,1463.997z"/>
					<path style="fill:#4A75CB;" d="M2381.312,1463.049L2381.312,1463.049c-0.171-0.101-0.229-0.323-0.127-0.494l0.194-0.329
						c0.102-0.171,0.323-0.228,0.494-0.127l0,0c0.172,0.101,0.229,0.323,0.127,0.494l-0.193,0.329
						C2381.705,1463.093,2381.482,1463.15,2381.312,1463.049z"/>
					<path style="fill:#4A75CB;" d="M2379.708,1462.102L2379.708,1462.102c-0.171-0.101-0.228-0.323-0.127-0.494l0.194-0.329
						c0.102-0.171,0.324-0.229,0.495-0.127l0,0c0.171,0.101,0.228,0.323,0.127,0.494l-0.194,0.329
						C2380.102,1462.146,2379.879,1462.203,2379.708,1462.102z"/>
					<path style="fill:#4A75CB;" d="M2378.105,1461.154L2378.105,1461.154c-0.172-0.102-0.229-0.324-0.127-0.495l0.194-0.329
						c0.101-0.171,0.323-0.228,0.494-0.127l0,0c0.171,0.102,0.229,0.324,0.127,0.494l-0.194,0.33
						C2378.498,1461.197,2378.275,1461.255,2378.105,1461.154z"/>
					<path style="fill:#4A75CB;" d="M2376.502,1460.206L2376.502,1460.206c-0.171-0.101-0.229-0.323-0.127-0.494l0.194-0.329
						c0.101-0.171,0.323-0.229,0.495-0.127l0,0c0.17,0.101,0.228,0.323,0.127,0.494l-0.195,0.329
						C2376.896,1460.25,2376.673,1460.308,2376.502,1460.206z"/>
					<path style="fill:#4A75CB;" d="M2374.898,1459.259L2374.898,1459.259c-0.171-0.102-0.228-0.323-0.127-0.495l0.194-0.328
						c0.102-0.172,0.324-0.229,0.495-0.127l0,0c0.171,0.101,0.228,0.323,0.127,0.494l-0.195,0.329
						C2375.292,1459.303,2375.069,1459.359,2374.898,1459.259z"/>
					<path style="fill:#4A75CB;" d="M2373.296,1458.311L2373.296,1458.311c-0.171-0.101-0.229-0.323-0.128-0.494l0.195-0.329
						c0.101-0.171,0.323-0.228,0.494-0.127l0,0c0.171,0.101,0.229,0.323,0.127,0.494l-0.194,0.329
						C2373.689,1458.354,2373.467,1458.412,2373.296,1458.311z"/>
				</g>
			</g>
			<path style="fill:#2B478B;" d="M2363.427,1462.803c1.077,0.193,1.892-0.964,1.347-1.914c-0.544-0.948-1.377-2.048-2.558-2.729
				c-2.428-1.402-3.146,3.041-2.356,3.541C2360.324,1461.994,2361.992,1462.545,2363.427,1462.803z"/>
			<path style="fill:#2B478B;" d="M2363.188,1457.517l-2.982,5.046c0,0-2.967-0.603-7.021-2.867
				c-2.482-1.388-3.978-2.672-4.765-3.459c-0.498-0.499-0.712-0.798-0.712-0.798l3.127-5.29c0.3-0.035,0.674,0.018,1.102,0.139
				c3.551,1.007,10.841,6.756,10.841,6.756L2363.188,1457.517z"/>
			<path style="fill:#4A75CB;" d="M2351.936,1450.287l-3.517,5.949c-0.498-0.499-0.712-0.798-0.712-0.798l3.127-5.29
				C2351.134,1450.113,2351.508,1450.166,2351.936,1450.287z"/>
			<path style="fill:#2B478B;" d="M2419.834,1482.12c0.146-0.055,10.452,2.274,16.055,6.375l-7.085-0.108l-9.1-5.379
				C2419.704,1483.008,2419.104,1482.39,2419.834,1482.12z"/>
			<g>
				<path style="fill:#4A75CB;" d="M2398.8,1461.595c0,0-6.376,4.389-7.484,4.983s-2.886,0.432-2.886,0.432l-0.011-0.002
					l-10.968-1.849c0,0-11.69-6.828-14.207-8.377l0,0c-0.228-0.141-0.381-0.238-0.442-0.283c-0.736-0.534-0.982-1.008-0.73-1.155
					c0.251-0.147,19.479,7.501,21.602,8.361c0.02,0.008,0.04,0.016,0.061,0.024c2.07,0.827,2.486,0.396,2.486,0.396l10.602-2.91
					c0.152-0.076,0.354-0.089,0.569-0.066C2398.031,1461.215,2398.8,1461.595,2398.8,1461.595z"/>
				<path style="fill:#4A75CB;" d="M2397.391,1461.148c-2.9,0.891-10.915,3.339-11.613,3.428c-0.75,0.096-18.234-6.242-22.533-7.794
					l0,0c-0.228-0.141-0.381-0.238-0.442-0.283c-0.736-0.534-0.982-1.008-0.73-1.155c0.251-0.147,19.479,7.501,21.602,8.361
					s2.547,0.42,2.547,0.42l10.602-2.91C2396.974,1461.139,2397.175,1461.126,2397.391,1461.148z"/>
				<path style="fill:#4A75CB;" d="M2398.8,1461.595c0,0-6.376,4.389-7.484,4.983s-2.886,0.432-2.886,0.432l-0.011-0.002
					c-2.075-1.101-3.674-2.368-4.686-3.278c2.07,0.827,2.486,0.396,2.486,0.396l10.602-2.91c0.152-0.076,0.354-0.089,0.569-0.066
					C2398.031,1461.215,2398.8,1461.595,2398.8,1461.595z"/>
			</g>
			<path style="fill:#739AF0;" d="M2428.489,1485.621l-27.503-17.208c0,0,14.201,4.633,16.113,4.117
				c1.803-0.485,21.545-7.077,26.215-6.483c-5.305,2.144-17.746,7.449-18.606,10.392
				C2423.889,1479.24,2426.913,1483.6,2428.489,1485.621z"/>
		</g>
	</g>
	<g>
		<g>
			<path style="fill:#F4A671;" d="M2199.818,1478.299c0.108-5.782,4.595-15.647-4.264-25.021
				c-6.278-6.728-11.813-14.289-14.457-17.985c-0.959-1.5-11.678,7.316-11.446,7.673c1.762,2.613,9.851,15.924,11.024,23.347
				c1.283,8.365,15.616,17.522,15.616,17.522S2199.787,1484.052,2199.818,1478.299z"/>
			<g>
				<path style="fill:#2B478B;" d="M2267.127,1479.445c-14.096,0.736-23.73-21.138-29.669-21.426
					c-0.975-0.043-2.825,0.227-5.203,0.576c5.847,9.592,10.314,20.868,12.79,33.261c8.452,42.196-9.358,81.347-39.775,87.433
					c-29.583,5.92-60.202-21.622-69.622-61.968c-0.264-1.128-0.509-2.268-0.741-3.42c-2.464-12.307-2.69-24.35-1.023-35.394
					c0-0.03,0.006-0.067,0.012-0.098c-1.274,0.337-2.262,0.631-2.844,0.907c-5.375,2.556-5.841,26.445-19.14,31.194
					c-13.293,4.744-22.254-20.733-6.423-40.578c9.652-12.104,26.758-17.944,38.635-20.659c2.471-4.027,5.309-7.644,8.471-10.769
					c0.116-0.116,0.232-0.239,0.355-0.355c-8.728-4.719-15.365-13.141-17.467-23.633c-0.711-3.548-0.846-7.084-0.479-10.504
					c-0.03-0.007-0.055-0.019-0.086-0.025c-6.006-1.813-10.836-6.79-12.153-13.366c-1.899-9.5,4.26-18.748,13.766-20.647
					c6.876-1.379,13.624,1.471,17.546,6.754c2.642-1.3,5.492-2.286,8.52-2.893c2.685-0.533,5.356-0.748,7.974-0.656
					c1.661-6.27,6.741-11.369,13.526-12.729c9.505-1.899,18.747,4.26,20.653,13.766c1.244,6.232-0.98,12.361-5.339,16.369
					c1.79,3.145,3.12,6.626,3.867,10.364c1.986,9.903-0.478,19.66-6.006,27.211c4.965,1.71,9.782,4.272,14.348,7.563
					c11.914-2.28,31.392-4.131,45.818,3.8C2279.691,1451.744,2281.223,1478.704,2267.127,1479.445z"/>
				<path style="fill:#233862;" d="M2135.647,1517.321c-0.264-1.128-0.509-2.268-0.741-3.42c-2.464-12.307-2.69-24.35-1.023-35.394
					c1.746-2.035,4.069-3.549,6.704-2.298c5.822,2.758,4.903,30.644,13.79,37.078
					C2160.965,1518.057,2144.491,1518.111,2135.647,1517.321z"/>
				<path style="fill:#233862;" d="M2169.447,1434.074c-3.34,1.238-10.468,3.451-16.854,4.432c0.116-0.116,0.232-0.239,0.355-0.355
					c-8.728-4.719-15.365-13.141-17.467-23.633c-0.711-3.548-0.846-7.084-0.479-10.504c-0.03-0.007-0.055-0.019-0.086-0.025
					c0.35-0.141,0.797,0.074,1.379,0.896c2.219,3.144,14.2,28.578,33.15,25.667
					C2169.447,1430.551,2174.399,1432.236,2169.447,1434.074z"/>
				<path style="fill:#233862;" d="M2178.432,1375.393c0,0,4.443-8.274,11.032-6.129c6.589,2.145,7.508,11.645,3.218,14.249
					C2192.682,1383.513,2186.295,1377.604,2178.432,1375.393z"/>
				<path style="fill:#233862;" d="M2147.482,1380.229c0,0-9.5-4.377-13.79,0.68c-4.29,5.056,4.29,11.506,4.29,11.506
					S2142.119,1383.839,2147.482,1380.229z"/>
			</g>
		</g>
		<g>
			<g>
				<g>
					<path style="fill:#EFCDAF;" d="M2071.188,1533.285c-6.707-6.031-1.189-20.272-3.745-23.084c-0.421-0.46-1.38-1.173-2.613-2.089
						c-1.686,6.978-4.756,14.095-9.23,20.816c-15.229,22.899-40.958,32.564-57.461,21.585
						c-16.053-10.679-17.466-36.958-3.511-59.457c0.39-0.629,0.793-1.255,1.208-1.881c4.441-6.679,9.776-12.228,15.516-16.469
						c0.014-0.015,0.033-0.028,0.05-0.039c-0.729-0.423-1.308-0.735-1.695-0.874c-3.585-1.271-14.58,9.323-22.739,5.468
						c-8.153-3.856-0.704-19.424,15.414-21.252c9.83-1.116,20.203,3.965,26.801,8.1c2.935-0.706,5.851-1.061,8.691-1.047
						c0.105,0,0.214-0.003,0.321,0c-1.816-6.074-1.017-12.879,2.771-18.573c1.28-1.926,2.815-3.586,4.525-4.967
						c-0.011-0.017-0.017-0.033-0.027-0.05c-1.897-3.532-1.835-7.963,0.538-11.531c3.43-5.154,10.39-6.557,15.547-3.124
						c3.732,2.48,5.497,6.816,4.887,10.976c1.78,0.605,3.515,1.445,5.158,2.538c1.455,0.971,2.76,2.08,3.902,3.304
						c3.581-2.086,8.182-2.099,11.863,0.35c5.157,3.432,6.556,10.39,3.127,15.549c-2.251,3.381-6.024,5.148-9.805,4.994
						c-0.61,2.229-1.58,4.404-2.93,6.433c-3.573,5.375-9.093,8.676-15.001,9.595c1.473,3.015,2.495,6.348,3.074,9.897
						c6.417,4.348,16.062,12.304,19.006,22.403C2089.377,1526.43,2077.898,1539.313,2071.188,1533.285z"/>
					<path style="fill:#E2B99A;" d="M1994.628,1491.057c0.39-0.629,0.793-1.255,1.208-1.881c4.441-6.679,9.776-12.228,15.516-16.469
						c1.709-0.132,3.442,0.231,4.07,1.987c1.388,3.876-11.617,16.072-10.504,22.994
						C2005.746,1502.819,1998.271,1495.407,1994.628,1491.057z"/>
					<path style="fill:#E2B99A;" d="M2047.496,1468.668c-2.069-0.948-6.292-3.166-9.623-5.605c0.105,0,0.214-0.003,0.321,0
						c-1.816-6.074-1.017-12.879,2.771-18.573c1.28-1.926,2.815-3.586,4.525-4.967c-0.011-0.017-0.017-0.033-0.027-0.05
						c0.222,0.094,0.327,0.393,0.22,1.027c-0.416,2.424-6.48,19.336,3.404,26.574
						C2049.087,1467.074,2050.565,1470.072,2047.496,1468.668z"/>
					<path style="fill:#FFF3E9;" d="M2078.052,1446.185c0,0,5.745-1.735,7.757,2.209c2.011,3.944-1.862,8.655-4.979,7.896
						C2080.83,1456.29,2080.609,1450.735,2078.052,1446.185z"/>
					<path style="fill:#FFF3E9;" d="M2061.871,1434.399c0,0-2.32-6.269-6.543-5.918c-4.223,0.35-3.254,7.14-3.254,7.14
						S2057.816,1433.611,2061.871,1434.399z"/>
				</g>
				<g>
					<g>
						<path style="fill:#AFCDFB;" d="M1929.25,1529.818c0,0-14.395-18.558-14.492-33.705c-0.097-15.146,0.344-20.175,2.872-19.492
							c2.528,0.684,13.9,9.128,17.987,17.54c4.087,8.411,11.268,30.419,11.417,33.412
							C1947.184,1530.565,1929.25,1529.818,1929.25,1529.818z"/>
						<path style="fill:#E57970;" d="M1930.037,1523.895c0,0-9.198-12.82-9.546-23.063c-0.349-10.242-0.173-13.633,1.394-13.123
							s8.715,6.436,11.386,12.2s7.502,20.779,7.65,22.806C1941.069,1524.74,1930.037,1523.895,1930.037,1523.895z"/>
					</g>
					<g>
						<path style="fill:#AFCDFB;" d="M1952.477,1522.073c0,0-6.901-25.136-4.175-31.979s16.864-2.273,18.467,2.551
							c1.604,4.825,0.616,25.197,0.616,25.197L1952.477,1522.073z"/>
						<path style="fill:#E57970;" d="M1954.313,1493.173c0,0-0.999,19.922,2.485,27.674l6.698-1.901c0,0,1.039-22.243,0.146-23.746
							S1954.313,1493.173,1954.313,1493.173z"/>
						<path style="fill:#AFCDFB;" d="M1947.911,1491.521c0,0,23.211,15.362,25.085,13.74c1.874-1.621-5.187-17.216-7.924-18.612
							C1962.336,1485.254,1947.744,1482.373,1947.911,1491.521z"/>
					</g>
				</g>
				<g>
					
						<rect x="1905.219" y="1511.377" transform="matrix(-1 -1.224647e-16 1.224647e-16 -1 4126.8682 3283.6719)" style="fill:#D3671E;" width="316.431" height="260.918"/>
					<rect x="2063.433" y="1511.378" style="fill:#F99746;" width="316.431" height="260.919"/>
					<polygon style="opacity:0.4;fill:#D86713;" points="2379.863,1511.378 2379.863,1594.23 2063.433,1613.183 2063.433,1511.378 
											"/>
					<polygon style="fill:#F99746;" points="2063.435,1511.377 2126.046,1580.028 2438.291,1580.028 2379.865,1511.377 					"/>
					<polygon style="fill:#F1A34F;" points="1905.403,1706.125 1955.545,1706.125 1951.128,1692.016 1955.545,1681.935 
						1905.403,1681.935 					"/>
					<polygon style="opacity:0.4;fill:#D86713;" points="2379.933,1750.873 2329.791,1750.873 2334.208,1736.764 2329.791,1726.683 
						2379.933,1726.683 					"/>
					<polygon style="fill:#C95C12;" points="2063.435,1540.874 1996.735,1607.574 1905.403,1607.574 1905.403,1511.377 
						2063.435,1511.377 					"/>
					<polygon style="fill:#F99746;" points="1905.219,1511.377 1834.076,1580.028 1992.392,1580.028 2063.435,1511.377 					"/>
				</g>
			</g>
			<g>
				<g>
					<path style="fill:#CADDFF;" d="M1827.09,1703.562l-5.763,1.118c-6.837,1.329-13.516-3.18-14.841-10.017l-8.476-43.628
						c-1.209-6.234,2.421-12.325,8.242-14.364c-0.05-0.148-0.095-0.301-0.126-0.463l-0.499-2.564
						c-0.346-1.779,0.827-3.518,2.61-3.863l2.564-0.498c1.783-0.347,3.521,0.826,3.867,2.604l0.494,2.569
						c0.027,0.117,0.041,0.238,0.05,0.359c0,0.022,0.004,0.041,0.004,0.063c6.315-0.494,12.182,3.849,13.417,10.205l8.472,43.632
						C1838.436,1695.548,1833.926,1702.231,1827.09,1703.562z"/>
					
						<rect x="1801.12" y="1650.266" transform="matrix(0.9817 -0.1906 0.1906 0.9817 -284.1777 376.8494)" style="fill:#2B478B;" width="31.195" height="30.544"/>
					<path style="fill:#4A75CB;" d="M1815.214,1634.815l-8.961,1.855c-0.05-0.148-0.095-0.301-0.126-0.463l-0.499-2.564
						c-0.346-1.779,0.827-3.518,2.61-3.863l2.564-0.498c1.783-0.347,3.521,0.826,3.867,2.604l0.494,2.569
						C1815.191,1634.573,1815.205,1634.694,1815.214,1634.815z"/>
				</g>
				<g>
					<path style="fill:#F9DDBF;" d="M1982.354,1623.805c0,0-3.794,5.341-7.272,5.415c-3.478,0.074-8.77-2.476-8.77-2.476
						s-3.193-7.117-1.027-9.902c0,0,2.172-0.953,4.443,0.73c0.391,0.29,0.786,0.655,1.176,1.126c0.551,0.662,1.17,1.04,1.826,1.238
						c2.482,0.755,5.428-1.021,6.529,0.692c0.645,0.997,1.344,1.746,1.919,2.271
						C1981.859,1623.507,1982.354,1623.805,1982.354,1623.805z"/>
					<path style="fill:#F9DDBF;" d="M1932.894,1662.332c0,0,13.409-32.493,37.547-33.112c0,0,22.281,2.476,23.519,33.112H1932.894z"
						/>
					<path style="fill:#F1A34F;" d="M1963.828,1630.212c0,0,9.675,2.151,12.66,0.888c0,0,0.451-4.046-3.623-3.479
						c-2.789,0.388-4.605-0.952-5.674-1.496C1965.68,1625.355,1963.427,1628.52,1963.828,1630.212z"/>
					<path style="fill:#E5C1A1;" d="M1972.248,1624.113c-0.619,0.465-2.52-6.541-2.52-6.541c0.391,0.29,0.786,0.655,1.176,1.126
						c0.551,0.662,1.17,1.04,1.826,1.238C1972.736,1620.141,1972.848,1623.662,1972.248,1624.113z"/>
					<path style="fill:#E5C1A1;" d="M1981.179,1622.9c-0.136,0.081-4.61,2.761-5.218,2.761c-0.618,0,3.299-5.032,3.299-5.032
						C1979.904,1621.626,1980.604,1622.375,1981.179,1622.9z"/>
					<path style="fill:#E5C1A1;" d="M1945.993,1653.254c-0.247-0.212,9.49-14.338,12.173-14.44
						c2.682-0.104,8.707,3.094,13.069,3.507c4.363,0.412,8.592-0.825,9.417,1.754c0.826,2.578,3.095,11.721,1.702,13.184
						C1980.962,1658.722,1951.348,1657.829,1945.993,1653.254z"/>
				</g>
				<g>
					<path style="fill:#E57970;" d="M1832.982,1675.223c-0.368,0.725-0.902,1.31-1.535,1.733c-0.357,0.237-0.738,0.421-1.143,0.554
						c-1.123,0.366-2.383,0.306-3.512-0.268l-60.129-30.546c-2.259-1.147-3.167-3.932-2.02-6.19c0.573-1.129,1.555-1.92,2.678-2.287
						c1.123-0.366,2.383-0.306,3.512,0.268l60.129,30.546C1833.222,1670.18,1834.13,1672.964,1832.982,1675.223z"/>
					<polygon style="fill:#B64C41;" points="1786.603,1656.825 1782.813,1644.571 1773.129,1639.652 1778.966,1652.945 					"/>
					<polygon style="fill:#B64C41;" points="1801.287,1664.285 1793.65,1660.405 1787.813,1647.112 1797.497,1652.031 					"/>
					<polygon style="fill:#B64C41;" points="1815.96,1671.739 1808.319,1667.857 1802.482,1654.564 1812.17,1659.485 					"/>
					<path style="fill:#B64C41;" d="M1831.447,1676.956c-0.357,0.237-0.738,0.421-1.143,0.554c-1.123,0.366-2.383,0.306-3.512-0.268
						l-3.528-1.793l-5.837-13.293l9.683,4.919L1831.447,1676.956z"/>
					<path style="fill:#B64C41;" d="M1764.645,1640.506c0,0-1.214-6.536-6.525-8.479c0,0,0.625,0.755-1.93,1.568
						s-1.813,2.576-2.722,3.374C1753.468,1636.97,1757.152,1641.864,1764.645,1640.506z"/>
					<path style="fill:#4A75CB;" d="M1763.614,1641.369l-0.141-0.072c-0.407-0.207-0.571-0.709-0.364-1.116l0.748-1.473
						c0.207-0.407,0.709-0.571,1.116-0.364l0.142,0.071c0.407,0.207,0.57,0.709,0.364,1.116l-0.749,1.473
						C1764.523,1641.411,1764.021,1641.575,1763.614,1641.369z"/>
					<path style="fill:#B64C41;" d="M1832.732,1675.095c0,0,5.994-2.874,10.694,0.27c0,0-0.978-0.06-0.128,2.483
						s-1.012,2.983-1.119,4.188C1842.18,1682.035,1836.053,1681.946,1832.732,1675.095z"/>
					<path style="fill:#4A75CB;" d="M1832.643,1676.436l0.142,0.071c0.407,0.207,0.909,0.043,1.116-0.364l0.748-1.473
						c0.207-0.407,0.043-0.909-0.364-1.116l-0.141-0.071c-0.407-0.207-0.91-0.043-1.117,0.363l-0.748,1.474
						C1832.072,1675.727,1832.235,1676.229,1832.643,1676.436z"/>
				</g>
				<g>
					<path style="fill:#F1A34F;" d="M1910.815,1675.695c-0.704,0.406-1.471,0.606-2.232,0.616c-0.429,0.004-0.849-0.049-1.26-0.158
						c-1.142-0.305-2.164-1.042-2.799-2.138l-33.775-58.376c-1.269-2.192-0.514-5.022,1.68-6.291
						c1.096-0.634,2.35-0.763,3.491-0.458s2.165,1.041,2.799,2.138l33.776,58.376
						C1913.764,1671.597,1913.008,1674.426,1910.815,1675.695z"/>
					<polygon style="fill:#F9DDBF;" points="1881.949,1634.997 1885.447,1622.656 1880.008,1613.256 1877.659,1627.583 					"/>
					<polygon style="fill:#F9DDBF;" points="1890.197,1649.254 1885.908,1641.84 1888.257,1627.513 1893.696,1636.913 					"/>
					<polygon style="fill:#F9DDBF;" points="1898.439,1663.499 1894.148,1656.081 1896.496,1641.754 1901.938,1651.158 					"/>
					<path style="fill:#F9DDBF;" d="M1908.583,1676.312c-0.429,0.004-0.849-0.049-1.26-0.158c-1.142-0.305-2.164-1.042-2.799-2.138
						l-1.981-3.426l2.349-14.327l5.439,9.401L1908.583,1676.312z"/>
					<path style="fill:#F1A34F;" d="M1872.429,1609.349c0,0,2.543-6.142-0.852-10.664c0,0,0.112,0.973-2.473,0.263
						c-2.586-0.709-2.924,1.173-4.121,1.347C1864.983,1600.294,1865.406,1606.406,1872.429,1609.349z"/>
					<path style="fill:#D3671E;" d="M1871.095,1609.511l-0.079-0.137c-0.229-0.396-0.093-0.906,0.303-1.135l1.43-0.827
						c0.396-0.229,0.906-0.093,1.135,0.303l0.08,0.137c0.228,0.396,0.092,0.906-0.304,1.135l-1.43,0.827
						C1871.834,1610.042,1871.323,1609.906,1871.095,1609.511z"/>
					<path style="fill:#F1A34F;" d="M1910.675,1675.451c0,0,6.593,0.856,8.821,6.054c0,0-0.787-0.583-1.461,2.013
						c-0.673,2.595-2.474,1.95-3.221,2.901C1914.814,1686.419,1909.727,1683.006,1910.675,1675.451z"/>
					<path style="fill:#D3671E;" d="M1909.869,1676.526l0.08,0.138c0.229,0.395,0.739,0.531,1.134,0.303l1.431-0.828
						c0.395-0.229,0.531-0.739,0.303-1.134l-0.08-0.138c-0.229-0.395-0.738-0.531-1.134-0.303l-1.431,0.828
						C1909.777,1675.621,1909.641,1676.131,1909.869,1676.526z"/>
				</g>
				<g>
					<path style="fill:#4A75CB;" d="M1801.511,1692.071c-0.719-0.38-1.295-0.924-1.709-1.563c-0.23-0.361-0.409-0.745-0.534-1.151
						c-0.349-1.129-0.268-2.388,0.324-3.507l31.51-59.629c1.184-2.24,3.982-3.104,6.222-1.92c1.12,0.592,1.896,1.586,2.244,2.715
						s0.268,2.387-0.324,3.507l-31.511,59.629C1806.549,1692.392,1803.751,1693.255,1801.511,1692.071z"/>
					<polygon style="fill:#699FF0;" points="1820.653,1645.993 1832.966,1642.4 1838.041,1632.798 1824.655,1638.42 					"/>
					<polygon style="fill:#699FF0;" points="1812.957,1660.557 1816.96,1652.982 1830.346,1647.36 1825.271,1656.963 					"/>
					<polygon style="fill:#699FF0;" points="1805.268,1675.107 1809.272,1667.529 1822.658,1661.907 1817.581,1671.514 					"/>
					<path style="fill:#699FF0;" d="M1799.802,1690.508c-0.23-0.361-0.409-0.745-0.534-1.151c-0.349-1.129-0.268-2.388,0.324-3.507
						l1.849-3.499l13.386-5.622l-5.075,9.603L1799.802,1690.508z"/>
					<path style="fill:#699FF0;" d="M1837.323,1624.301c0,0,6.556-1.108,8.583-6.388c0,0-0.765,0.612-1.537-1.955
						s-2.547-1.854-3.329-2.775C1841.04,1613.183,1836.086,1616.788,1837.323,1624.301z"/>
					<path style="fill:#4A75CB;" d="M1836.479,1623.258l0.073-0.141c0.214-0.403,0.718-0.56,1.122-0.346l1.461,0.771
						c0.403,0.214,0.56,0.719,0.346,1.122l-0.074,0.14c-0.213,0.404-0.718,0.56-1.121,0.347l-1.461-0.772
						C1836.42,1624.166,1836.265,1623.661,1836.479,1623.258z"/>
					<path style="fill:#4A75CB;" d="M1801.643,1691.822c0,0,2.777,6.04-0.441,10.689c0,0,0.075-0.977-2.481-0.168
						s-2.967-1.06-4.169-1.188C1794.551,1701.156,1794.738,1695.032,1801.643,1691.822z"/>
					<path style="fill:#4A75CB;" d="M1800.304,1691.712l-0.074,0.14c-0.213,0.403-0.058,0.908,0.347,1.122l1.46,0.771
						c0.404,0.214,0.909,0.058,1.122-0.346l0.074-0.14c0.214-0.404,0.058-0.909-0.346-1.122l-1.461-0.772
						C1801.021,1691.152,1800.518,1691.308,1800.304,1691.712z"/>
				</g>
				<g>
					<path style="fill:#B64C41;" d="M1864.466,1637.871c0,0,2.754,3.876,5.278,3.93c2.524,0.055,6.364-1.796,6.364-1.796
						s2.318-5.166,0.746-7.187c0,0-1.577-0.692-3.226,0.529c-0.283,0.211-0.57,0.477-0.854,0.817
						c-0.399,0.481-0.849,0.755-1.324,0.898c-1.802,0.548-3.939-0.741-4.739,0.503c-0.467,0.724-0.975,1.267-1.393,1.648
						C1864.825,1637.655,1864.466,1637.871,1864.466,1637.871z"/>
					<path style="fill:#B64C41;" d="M1900.362,1665.832c0,0-9.731-23.582-27.25-24.031c0,0-16.17,1.797-17.068,24.031H1900.362z"/>
					<path style="fill:#963333;" d="M1877.911,1642.521c0,0-7.021,1.562-9.188,0.644c0,0-0.327-2.936,2.63-2.524
						c2.023,0.282,3.342-0.69,4.117-1.085C1876.568,1638.997,1878.203,1641.293,1877.911,1642.521z"/>
					<path style="fill:#963333;" d="M1871.801,1638.096c0.449,0.337,1.828-4.748,1.828-4.748c-0.283,0.211-0.57,0.477-0.854,0.817
						c-0.399,0.481-0.849,0.755-1.324,0.898C1871.446,1635.212,1871.365,1637.768,1871.801,1638.096z"/>
					<path style="fill:#963333;" d="M1865.319,1637.215c0.099,0.059,3.347,2.004,3.787,2.004c0.448,0-2.395-3.652-2.395-3.652
						C1866.245,1636.29,1865.737,1636.833,1865.319,1637.215z"/>
					<path style="fill:#963333;" d="M1890.854,1659.244c0.181-0.154-6.887-10.406-8.833-10.48c-1.947-0.075-6.32,2.245-9.486,2.545
						s-6.235-0.599-6.834,1.272c-0.599,1.872-2.246,8.507-1.235,9.569C1865.477,1663.212,1886.969,1662.563,1890.854,1659.244z"/>
				</g>
				<g>
					<path style="fill:#CADDFF;" d="M1934.241,1639.131l0.002-0.001c-2.899,0.036-4.351-4.341-4.351-4.341l-28.224,8.544
						c1.266,3.093-0.78,5.477-0.78,5.477s-4.882,3.261-3.364,8.274l6.246,20.632c1.106,3.655,5.003,5.741,8.659,4.635l29.771-9.013
						c3.656-1.106,5.741-5.003,4.635-8.658l-6.246-20.633C1939.715,1641.161,1937.102,1639.261,1934.241,1639.131z"/>
					<g>
						<path style="fill:#963333;" d="M1898.849,1642.419l1.695,5.6c0.612,2.024,8.342,1.476,17.265-1.226
							c8.922-2.701,15.658-6.531,15.046-8.556l-1.695-5.6L1898.849,1642.419z"/>
						<path style="fill:#B64C41;" d="M1931.159,1632.638c0.613,2.023-6.124,5.854-15.046,8.556
							c-8.923,2.701-16.652,3.249-17.266,1.226c-0.612-2.024,6.124-5.855,15.047-8.556
							C1922.816,1631.162,1930.547,1630.613,1931.159,1632.638z"/>
					</g>
				</g>
				<g>
					<path style="fill:#B7D2F9;" d="M1858.519,1650.338L1858.519,1650.338c-2.023-0.98-1.513-4.522-1.513-4.522l-22.561-3.859
						c-0.194,2.587-2.441,3.531-2.441,3.531s-4.521,0.571-5.206,4.578l-2.821,16.492c-0.5,2.922,1.481,5.722,4.404,6.222
						l23.797,4.07c2.922,0.5,5.722-1.481,6.222-4.403l2.821-16.492C1861.615,1653.646,1860.459,1651.421,1858.519,1650.338z"/>
					<g>
						<path style="fill:#C95C12;" d="M1832.805,1640.343l-0.766,4.476c-0.277,1.618,5.28,3.919,12.412,5.139
							c7.132,1.221,13.138,0.897,13.415-0.721l0.766-4.476L1832.805,1640.343z"/>
						<path style="fill:#F1A34F;" d="M1858.632,1644.761c-0.277,1.618-6.283,1.94-13.415,0.721
							c-7.132-1.221-12.689-3.521-12.412-5.139c0.276-1.618,6.282-1.94,13.414-0.721
							C1853.352,1640.842,1858.908,1643.143,1858.632,1644.761z"/>
					</g>
				</g>
				<g>
					
						<rect x="1786.622" y="1657.031" transform="matrix(-1 -1.224647e-16 1.224647e-16 -1 3713.0313 3429.3262)" style="fill:#D3671E;" width="139.787" height="115.264"/>
					
						<rect x="1856.516" y="1657.031" transform="matrix(-1 -1.224647e-16 1.224647e-16 -1 3852.8184 3429.3262)" style="fill:#F99746;" width="139.787" height="115.264"/>
					<polygon style="fill:#ED7D2B;" points="1856.516,1657.031 1996.663,1657.031 1996.663,1697.184 1856.516,1714.663 					"/>
					<polygon style="fill:#F99746;" points="1856.516,1657.031 1884.175,1687.359 2022.113,1687.359 1996.303,1657.031 					"/>
					<polygon style="fill:#F99746;" points="1786.703,1743.063 1808.854,1743.063 1806.902,1736.831 1808.854,1732.377 
						1786.703,1732.377 					"/>
					<polygon style="fill:#C95C12;" points="1856.516,1670.063 1827.05,1699.527 1786.703,1699.527 1786.703,1657.031 
						1856.516,1657.031 					"/>
					<polygon style="fill:#F99746;" points="1786.622,1657.031 1755.193,1687.359 1825.131,1687.359 1856.516,1657.031 					"/>
				</g>
			</g>
		</g>
	</g>
	<path style="fill:#F77D48;" d="M1615.072,1130.164c-141.026-26.08-224.04,140.705-238.305,161.355
		c-14.264-20.65-97.279-187.436-238.305-161.355c-155.54,28.765-222.427,175.475-163.661,318.68
		c47.88,116.676,357.249,303.54,399.757,325.773v2.294c0,0,0.767-0.394,2.208-1.143c1.442,0.749,2.209,1.143,2.209,1.143v-2.294
		c42.508-22.233,346.979-211.229,399.757-325.773C1837.643,1320.991,1770.612,1158.929,1615.072,1130.164z"/>
	<g>
		<g>
			<path style="fill:#ED985F;" d="M1180.977,1461.499c-2.535,6.197-19.342,4.507-32.299-4.319
				c-12.863-8.731-31.361-16.807-41.876-24.13c-7.887-5.352-16.056-25.633-22.253-38.12c-1.596-3.193-3.099-5.916-4.319-7.7
				c-7.605-2.253-7.136-10.14-14.178-12.676c-8.357-2.91-5.821-7.604-5.821-7.604s6.009-2.535,13.333-1.784
				c2.629,0.376,7.887,7.98,10.985,12.769c2.911,2.16,6.385,5.071,10.141,8.451c10.141,9.015,21.596,20.657,26.196,26.383
				c5.352,6.668,39.999,13.99,49.388,21.69C1186.986,1448.166,1180.977,1461.499,1180.977,1461.499z"/>
			<path style="fill:#ED985F;" d="M1120.986,1556.871l36.329,201.67l12.583,0.827c0,0,9.89-87.826,1.417-118.144
				c-8.472-30.316,14.618-68.658,8.131-94.955S1120.986,1556.871,1120.986,1556.871z"/>
			<path style="fill:#FFB27D;" d="M1162.781,1445.459l-31.721-5.16c-1.51-5.153-1.942-12.234-1.964-18.494
				c-0.021-7.776,0.596-14.283,0.596-14.283l25.597-2.467l11.37-1.099C1160.413,1415.864,1162.781,1445.459,1162.781,1445.459z"/>
			<path style="fill:#ED985F;" d="M1163.724,1410.208c0,0-16.949,14.454-34.628,11.597c-0.021-7.776,0.596-14.283,0.596-14.283
				l25.597-2.467L1163.724,1410.208z"/>
			<path style="fill:#FFB27D;" d="M1145.174,1606.548c-6.422,17.863-12.192,36.06-9.3,50.98c0.851,4.409,1.382,8.975,1.638,13.625
				c0.234,4.267,0.248,8.604,0.071,12.958c-1.411,35.159-14.801,70.999-16.871,76.344c-0.177,0.453-0.269,0.688-0.269,0.688
				l-11.136-1.184l-4.792-211.609c0,0,50.853-20.542,53.688,6.395C1159.67,1568.673,1152.05,1587.423,1145.174,1606.548z"/>
			<path style="fill:#35488B;" d="M1175.569,1618.541c0,0-3.246,0.468-8.074,0.993c-9.059,0.992-23.662,2.169-32.685,0.779
				c-4.303-0.659-6.713-7.762-7.847-17.304c-2.517-21.145,1.24-54.241,4.657-55.709c4.962-2.126,48.89-0.326,48.89-0.326
				S1190.101,1570.693,1175.569,1618.541z"/>
			<path style="fill:#2C3A64;" d="M1168.205,1619.534c-9.059,0.992-23.662,2.169-32.686,0.779
				c-4.303-0.659-6.713-7.762-7.847-17.304l24.08-39.405l18.076-7.088C1169.828,1556.517,1177.086,1586.728,1168.205,1619.534z"/>
			<path style="fill:#35488B;" d="M1104.329,1547.655c0,0-9.452,41.823-8.034,74.903c0,0,21.502,4.253,43.477,0
				c0,0,36.388-52.929,33.316-69.941C1170.016,1535.605,1113.544,1542.221,1104.329,1547.655z"/>
			<path style="fill:#FFB27D;" d="M1121.61,1402.427c0,0,29.572,23.446,43.89,4.805c14.317-18.641,27.776-28.169,9.5-43.927
				c-18.276-15.757-27.451-11.495-33.744-6.436C1134.965,1361.929,1114.287,1395.848,1121.61,1402.427z"/>
			<path style="fill:#2C3A64;" d="M1195.997,1370.312c0,0-1.642-0.534-3.527,0.033c-0.002-0.02-0.003-0.033-0.003-0.033
				c2.386-4.415,0.597-11.259,0.597-11.259c0.597,3.753-2.784,8.168-2.784,8.168c-0.199-13.908-34.601-22.518-37.783-23.401
				c-3.182-0.883-2.784-6.181-2.784-6.181c-6.562,1.324-13.522,9.713-13.323,17.882c0.199,8.168,6.96,23.843,11.335,24.063
				c4.375,0.221,2.386,3.753-0.597,8.609c-2.983,4.857,0.892,18.048,6.261,22.685c4.325,3.734,6.597,0.612,9.132-0.765
				c0.629-0.342,1.299-0.607,1.997-0.764c10.033-2.238,20.471-12.151,25.662-24.799c2.063-5.023,2.351-10.063,2.344-12.582
				C1193.38,1371.469,1195.032,1370.55,1195.997,1370.312z"/>
			<g>
				<path style="fill:#739CF3;" d="M1171.604,1773.281h-7.022c-2.353-0.328-4.09-0.93-6.503-1.209
					c-3.664-0.425-5.351,0.903-5.686,1.209c-0.045,0.039-0.065,0.062-0.065,0.062h-29.834c-0.751-0.947-0.03-3.143,0.676-4.758
					c0.476-1.099,1.512-1.931,2.793-2.258c3.164-0.811,9.401-1.532,15.112-6.104c3.213-2.567,15.518-9.441,15.518-9.441l0.065-0.014
					c0.271,0.005,1.557,0.354,7.153,4.533c2.894,2.155,7.824-3.046,7.824-3.046s0.926,0.678,1.617,1.938
					c0.556,0.996,0.961,2.364,0.641,4.051c-0.445,2.377,0.991,6.795,2.138,9.782c0.696,1.811,1.281,3.095,1.281,3.095
					S1177.646,1772.612,1171.604,1773.281z"/>
				<path style="fill:#415DA5;" d="M1173.25,1754.193c-1.677,1.045-5.216,3.104-7.563,3.373c-3.168,0.368-9.095-6.785-9.095-6.785
					l0.065-0.014c0.271,0.005,1.557,0.354,7.153,4.533c2.894,2.155,7.824-3.046,7.824-3.046S1172.56,1752.933,1173.25,1754.193z"/>
				<path style="fill:#415DA5;" d="M1171.604,1773.281h-7.022c-2.353-0.328-4.09-0.93-6.503-1.209
					c-3.664-0.425-5.351,0.903-5.686,1.209c-0.045,0.039-0.065,0.062-0.065,0.062h-29.834c-0.751-0.947-0.03-3.143,0.676-4.758
					c0.906-0.713,1.161,3.094,1.662,3.7c0.5,0.606,24.337,0.221,25.714-0.664s5.506-2.435,11.263-1.217
					c5.011,1.058,12.394-1.656,14.221-2.378c0.696,1.811,1.281,3.095,1.281,3.095S1177.646,1772.612,1171.604,1773.281z"/>
			</g>
			<g>
				<path style="fill:#739CF3;" d="M1123.606,1773.281h-7.023c-2.353-0.328-4.09-0.93-6.502-1.209
					c-3.664-0.425-5.351,0.903-5.687,1.209c-0.045,0.039-0.065,0.062-0.065,0.062h-29.834c-0.75-0.947-0.03-3.143,0.676-4.758
					c0.476-1.099,1.512-1.931,2.793-2.258c3.164-0.811,9.4-1.532,15.112-6.104c3.214-2.567,15.518-9.441,15.518-9.441l0.065-0.014
					c0.27,0.005,1.557,0.354,7.153,4.533c2.893,2.155,7.824-3.046,7.824-3.046s0.926,0.678,1.617,1.938
					c0.555,0.996,0.961,2.364,0.641,4.051c-0.445,2.377,0.991,6.795,2.137,9.782c0.696,1.811,1.282,3.095,1.282,3.095
					S1129.647,1772.612,1123.606,1773.281z"/>
				<path style="fill:#415DA5;" d="M1125.253,1754.193c-1.677,1.045-5.216,3.104-7.564,3.373c-3.168,0.368-9.095-6.785-9.095-6.785
					l0.065-0.014c0.27,0.005,1.557,0.354,7.153,4.533c2.893,2.155,7.824-3.046,7.824-3.046S1124.562,1752.933,1125.253,1754.193z"/>
				<path style="fill:#415DA5;" d="M1123.606,1773.281h-7.023c-2.353-0.328-4.09-0.93-6.502-1.209
					c-3.664-0.425-5.351,0.903-5.687,1.209c-0.045,0.039-0.065,0.062-0.065,0.062h-29.834c-0.75-0.947-0.03-3.143,0.676-4.758
					c0.906-0.713,1.162,3.094,1.662,3.7s24.337,0.221,25.714-0.664c1.377-0.885,5.506-2.435,11.263-1.217
					c5.011,1.058,12.394-1.656,14.221-2.378c0.696,1.811,1.282,3.095,1.282,3.095S1129.647,1772.612,1123.606,1773.281z"/>
			</g>
			<path style="fill:#FFFFFF;" d="M1186.668,1556.517c0,0-28.436,8.276-63.028,2.387c-6.323-1.078-17.42-4.229-25.272-8.646
				l10.427-82.915l2.148-38.541c0,0,11.938-3.657,17.722-4.012c0,0,24.222,2.893,33.614,0.411c0,0,13.461,2.779,17.317,15.445
				C1187.621,1467.003,1190.307,1499.713,1186.668,1556.517z"/>
			<path style="fill:#FFB27D;" d="M1130.556,1461.499c-2.629,6.197-19.436,4.507-32.299-4.319c-1.127-0.75-2.253-1.502-3.474-2.254
				c-12.582-7.885-28.919-15.209-38.497-21.876c-9.014-6.198-18.497-32.019-24.881-43.097c-0.563-1.033-1.127-1.972-1.69-2.724
				c-7.512-2.348-7.042-10.14-14.084-12.676c-8.356-2.91-5.915-7.604-5.915-7.604s6.103-2.535,13.333-1.784
				c2.723,0.376,7.98,7.98,10.985,12.769c2.066,1.597,4.601,3.568,7.23,5.729c10.704,9.296,24.131,22.816,29.107,29.105
				c3.85,4.789,22.816,9.954,36.712,15.212c5.446,2.16,10.141,4.319,12.77,6.479
				C1136.565,1448.166,1130.556,1461.499,1130.556,1461.499z"/>
			<path style="fill:#FFFFFF;" d="M1130.556,1461.499c-2.826,12.859-35.629-2.746-36.85-3.498
				c1.786-19.335,1.55-29.935,6.993-33.293c10.673-1.671,26.758-0.854,29.959,0.3
				C1156.846,1434.446,1130.556,1461.499,1130.556,1461.499z"/>
			<path style="fill:#FFA412;" d="M1094.688,1386.385c-1.126,3.098-3.943,6.667-10.141,8.545c-1.596-3.193-3.099-5.916-4.319-7.7
				c-7.605-2.253-7.136-10.14-14.178-12.676c-8.357-2.91-5.821-7.604-5.821-7.604s6.009-2.535,13.333-1.784
				c2.629,0.376,7.887,7.98,10.985,12.769C1087.458,1380.094,1090.933,1383.005,1094.688,1386.385z"/>
			<g>
				<path style="fill:#FFFFFF;" d="M1077.269,1378.626c-2.842,2.198-10.433,9.885-10.433,9.885l-17.5-22.623
					c0,0,8.947-5.651,11.936-7.941c2.714-2.078,10.688-9.559,10.688-9.559l17.5,22.623
					C1089.459,1371.011,1080.112,1376.427,1077.269,1378.626z"/>
				<path style="fill:#FFFFFF;" d="M1077.269,1378.626c-2.842,2.198-10.433,9.885-10.433,9.885l-12.327-15.936
					c0,0,8.947-5.651,11.936-7.94c2.713-2.079,10.687-9.56,10.687-9.56l12.327,15.936
					C1089.459,1371.011,1080.112,1376.427,1077.269,1378.626z"/>
				
					<rect x="1067.313" y="1357.855" transform="matrix(0.6118 0.791 -0.791 0.6118 1494.7878 -328.0268)" style="fill:#FFFFFF;" width="28.602" height="2.288"/>
				
					<rect x="1042.88" y="1376.755" transform="matrix(0.6118 0.791 -0.791 0.6118 1500.2535 -301.3638)" style="fill:#FFFFFF;" width="28.602" height="2.288"/>
			</g>
			<g>
				<path style="opacity:0.5;fill:#EBF3FA;" d="M1043.707,1368.883l-23.341,28.601c-2.764,3.387-7.797,3.896-11.184,1.133
					l-11.723-9.567c-3.58-2.922-4.119-8.243-1.197-11.822l23.057-28.252c3.924-4.809,10.233-6.59,15.879-5.037
					c0.741,0.204,1.55-0.075,1.951-0.735c0.118-0.188,0.247-0.373,0.392-0.551l1.233-1.511l8.711,7.109l-1.233,1.511
					c-0.163,0.199-0.336,0.38-0.52,0.546c-0.519,0.469-0.684,1.221-0.36,1.839
					C1048.12,1357.396,1047.672,1364.024,1043.707,1368.883z"/>
				<path style="opacity:0.3;fill:#EBF3FA;" d="M1043.707,1368.883l-23.341,28.601c-2.764,3.387-7.797,3.896-11.184,1.133
					l-7.368-6.013c-3.58-2.922-4.118-8.243-1.197-11.822l23.057-28.252c3.924-4.809,10.233-6.59,15.879-5.037
					c0.272,0.074,0.555,0.083,0.823,0.033c0.456-0.087,0.874-0.354,1.128-0.769c0.118-0.188,0.247-0.374,0.392-0.551l1.233-1.511
					l4.355,3.555l-1.233,1.511c-0.163,0.199-0.336,0.38-0.52,0.546c-0.519,0.469-0.684,1.221-0.36,1.839
					C1048.12,1357.396,1047.672,1364.024,1043.707,1368.883z"/>
				<path style="opacity:0.3;fill:#EBF3FA;" d="M1038.876,1364.94l-23.341,28.601c-2.764,3.387-7.797,3.896-11.184,1.133
					l-2.537-2.07c-3.58-2.922-4.118-8.243-1.197-11.822l23.057-28.252c3.924-4.809,10.233-6.59,15.879-5.037
					c0.272,0.074,0.555,0.083,0.823,0.033c-0.003,0.229,0.05,0.463,0.165,0.678
					C1043.29,1353.454,1042.842,1360.082,1038.876,1364.94z"/>
				
					<rect x="1006.921" y="1358.938" transform="matrix(0.7748 0.6323 -0.6323 0.7748 1096.4141 -338.0552)" style="fill:#EBF3FA;" width="31.483" height="21.67"/>
				
					<rect x="1037.906" y="1341.951" transform="matrix(0.776 0.6308 -0.6308 0.776 1081.287 -357.6545)" style="fill:#EBF3FA;" width="12.501" height="2.959"/>
			</g>
			<path style="fill:#FFA412;" d="M1041.263,1383.662c-1.69,2.534-4.695,4.788-9.858,6.291c-0.563-1.033-1.127-1.972-1.69-2.724
				c-7.512-2.348-7.042-10.14-14.084-12.676c-8.356-2.91-5.915-7.604-5.915-7.604s6.103-2.535,13.333-1.784
				c2.723,0.376,7.98,7.98,10.985,12.769C1036.099,1379.53,1038.634,1381.502,1041.263,1383.662z"/>
		</g>
		<g>
			<path style="fill:#FFB27D;" d="M918.827,1343.37l-1.691,11.361c0,0-0.75,0-2.065-0.094c-4.131-0.282-14.178-0.845-25.539-2.066
				c-17.089-1.689-37.37-4.694-45.445-9.67c-12.3-7.511-32.487-30.516-45.632-53.521c-0.376-0.563-0.657-1.125-0.94-1.689
				c-6.854-12.206-11.643-24.318-12.018-33.989c-0.282-5.915,0.375-10.985,1.596-15.398c1.596-5.821,4.226-10.422,6.948-13.896
				c0.376-0.564,0.751-1.127,1.314-1.597c4.507-5.352,8.92-7.605,8.92-7.605c2.253-0.939,4.695,0.188,7.229,2.91v0.095
				c2.066,2.16,4.319,5.445,6.479,9.577c0.094,0.094,0.188,0.188,0.188,0.281c0.469,0.845,0.939,1.784,1.503,2.816
				c0.187,0.188,0.281,0.47,0.375,0.658c1.033,2.159,2.065,4.412,3.099,6.76c11.549,25.163,23.849,63.284,34.083,74.645
				c4.413,4.883,24.6,14.46,40.655,21.597C909.437,1339.615,918.827,1343.37,918.827,1343.37z"/>
			<path style="fill:#2C3A64;" d="M766.089,1092.901c0,0-3.491-18.156-23.063-19.138c-19.572-0.981-42.636,14.617-40.673,35.034
				c1.963,20.417-20.12,28.76-24.045,45.936c-3.926,17.175,14.571,17.217,18.544,30.425c3.973,13.207-7.034,25.148,16.85,26.241
				c23.884,1.093,51.32-3.039,56.863-16.427c5.542-13.389,8.631-67.568,8.631-67.568L766.089,1092.901z"/>
			<path style="fill:#FFB27D;" d="M799.983,1278.245c-1.134,6.294-3.005,11.682-5.26,16.785c-1.878,4.274-4.019,8.337-6.224,12.568
				c-6.458,12.44-20.791,18.146-22.18,42.475c-0.475,8.379,0.582,18.969,4.026,32.799c16.963,68.171-117.04,10.095-109.462-7.563
				c15.063-35.088,35.443-54.937,36.13-84.276c0.007-0.077-0.007-0.148-0.014-0.227c-0.071-1.425-0.12-5.238-0.149-10.278
				c-0.071-12.327-0.028-31.984,0.092-41.929c0-0.234,0.007-0.461,0.007-0.681c0.057-4.261,0.042-7.344-0.092-8.159
				c10.995-39.993,32.82-39.349,40.263-38.944c2.757,0.148,5.649,0.439,8.024,0.729c4.777-2.487,13.341-14.595,18.303-34.847
				l1.673,0.786l28.142,13.228c0,0-2.992,9.151-5.196,17.92c-1.722,6.854-2.956,13.476-1.921,15.333
				c2.219,0.899,3.544,1.467,3.544,1.467s0,0.007,0.007,0.028C790.159,1206.614,805.754,1246.325,799.983,1278.245z"/>
			<path style="fill:#35488B;" d="M795.836,1754.311l-10.295,5.368c0,0-55.992-77.24-62.636-142.997
				c-1.178-11.738-0.785-23.113,1.767-33.614c0,0-1.119-6.487-2.994-17.225c-0.373-2.14-0.775-4.437-1.197-6.89
				c-1.59-9.069-3.543-20.208-5.712-32.516c-2.14-12.131-4.485-25.41-6.91-38.964c-4.77-26.666-9.794-54.44-14.035-76.857
				l3.347-1.079l15.32-4.946l20.846-6.724l7.478-23.741l4.878-1.285l22.053-5.801c0,0,0.962,1.885,2.454,7.685
				c1.982,7.665,4.897,22.191,7.773,48.298c0.383,3.572,0.775,7.36,1.168,11.385c4.044,29.541,6.39,71.321,0.01,121.454
				c-1.236,9.667-2.797,19.639-4.721,29.895c-1.423,7.509-1.629,17.755-1.04,29.513
				C776.109,1669.022,795.836,1754.311,795.836,1754.311z"/>
			<path style="fill:#2C3A64;" d="M777.974,1423.022c-14.388,34.262-45.588,107.852-57.493,135.931
				c-1.59-9.069-3.543-20.208-5.712-32.516c-2.14-12.131-4.485-25.41-6.91-38.964l-5.437-57.071l10.069-25.812l12.828-32.889
				c0,0,9.589,0.481,20.375,1.139c8.931,0.55,18.697,1.236,24.507,1.884C772.183,1382.39,775.098,1396.916,777.974,1423.022z"/>
			<path style="fill:#F99746;" d="M941.787,1373.82c-4.883,4.318-25.519-17.211-27.303-19.183
				c-4.131-0.282-14.178-0.845-25.539-2.066c3.567-5.82,6.854-14.177,8.356-18.026c11.549,5.07,20.939,8.825,20.939,8.825
				s17.641,2.904,20.318,5.854C945.981,1357.402,947.138,1369.22,941.787,1373.82z"/>
			<path style="fill:#699FF0;" d="M936.343,1357.912c-3.521,0-72.768-3.521-72.768-3.521l48.121,51.318l105.63,22.493
				L936.343,1357.912z"/>
			<path style="fill:#F99746;" d="M984.247,1423.591c-2.296,7.018-6.337,28.85-6.337,28.85l-55.867-18.283
				c0,0,8.695-19.936,11.137-27.278c2.216-6.666,7.146-28.588,7.146-28.588l55.867,18.282
				C996.192,1396.573,986.544,1416.57,984.247,1423.591z"/>
			<path style="fill:#ED7D2B;" d="M984.247,1423.591c-2.296,7.018-6.337,28.85-6.337,28.85l-39.352-12.878
				c0,0,8.695-19.936,11.137-27.279c2.217-6.666,7.146-28.588,7.146-28.588l39.352,12.878
				C996.192,1396.573,986.544,1416.57,984.247,1423.591z"/>
			
				<rect x="939.597" y="1382.845" transform="matrix(0.9504 0.311 -0.311 0.9504 478.8904 -232.6763)" style="fill:#ED7D2B;" width="58.784" height="4.703"/>
			
				<rect x="919.852" y="1443.183" transform="matrix(0.9504 0.311 -0.311 0.9504 496.6774 -223.5423)" style="fill:#DC8D39;" width="58.783" height="4.703"/>
			<g>
				<g>
					<path style="fill:#ECF2FD;" d="M994.82,1407.907l20.17,30.919c2.388,3.661,1.347,8.612-2.314,11l-12.674,8.268
						c-3.87,2.524-9.104,1.424-11.628-2.446l-19.924-30.542c-3.391-5.198-3.173-11.75,0.019-16.659
						c0.419-0.645,0.398-1.5-0.108-2.082c-0.145-0.169-0.281-0.349-0.406-0.54l-1.066-1.634l9.417-6.144l1.065,1.634
						c0.141,0.216,0.26,0.436,0.363,0.661c0.289,0.637,0.955,1.022,1.642,0.901C985.215,1400.217,991.394,1402.654,994.82,1407.907z
						"/>
					<path style="fill:#E5EAF5;" d="M994.82,1407.907l20.17,30.919c2.388,3.661,1.347,8.612-2.314,11l-7.965,5.196
						c-3.87,2.524-9.104,1.423-11.628-2.446l-19.924-30.543c-3.391-5.198-3.173-11.75,0.019-16.658
						c0.153-0.237,0.248-0.504,0.281-0.774c0.056-0.461-0.071-0.939-0.39-1.308c-0.144-0.17-0.281-0.35-0.406-0.541l-1.065-1.633
						l4.708-3.072l1.065,1.634c0.141,0.216,0.26,0.436,0.363,0.661c0.289,0.637,0.955,1.022,1.642,0.901
						C985.215,1400.217,991.394,1402.654,994.82,1407.907z"/>
					<path style="opacity:0.3;fill:#CED4EA;" d="M989.599,1411.314l20.17,30.919c2.388,3.661,1.346,8.611-2.315,11l-2.743,1.789
						c-3.87,2.524-9.104,1.423-11.628-2.446l-19.924-30.543c-3.391-5.198-3.173-11.75,0.019-16.658
						c0.153-0.237,0.248-0.504,0.281-0.774c0.218,0.072,0.456,0.093,0.696,0.049
						C979.993,1403.624,986.171,1406.062,989.599,1411.314z"/>
					
						<rect x="973.542" y="1417.395" transform="matrix(0.8375 -0.5464 0.5464 0.8375 -619.6263 772.5376)" style="fill:#EBF3FA;" width="31.483" height="21.67"/>
				</g>
				
					<rect x="964.454" y="1398.276" transform="matrix(0.8364 -0.548 0.548 0.8364 -608.3711 760.9258)" style="fill:#EBF3FA;" width="12.5" height="2.959"/>
			</g>
			<g>
				<path style="fill:#ECF2FD;" d="M925.314,1394.819l7.485,36.149c0.886,4.28-1.892,8.509-6.172,9.395l-14.817,3.068
					c-4.524,0.938-8.995-1.999-9.932-6.523l-7.394-35.709c-1.258-6.078,1.336-12.098,6.102-15.502
					c0.625-0.446,0.919-1.25,0.659-1.978c-0.073-0.21-0.134-0.428-0.181-0.651l-0.395-1.91l11.01-2.279l0.395,1.909
					c0.052,0.253,0.083,0.501,0.097,0.749c0.036,0.697,0.516,1.3,1.2,1.438C919.181,1384.152,924.042,1388.678,925.314,1394.819z"/>
				<path style="fill:#E5EAF5;" d="M925.314,1394.819l7.485,36.149c0.886,4.28-1.892,8.509-6.172,9.395l-9.313,1.929
					c-4.524,0.937-8.995-2-9.932-6.524l-7.394-35.709c-1.259-6.077,1.336-12.097,6.101-15.501c0.229-0.164,0.415-0.378,0.544-0.618
					c0.22-0.408,0.277-0.9,0.115-1.359c-0.073-0.211-0.134-0.428-0.181-0.651l-0.396-1.91l5.505-1.14l0.395,1.909
					c0.052,0.253,0.083,0.501,0.097,0.749c0.036,0.697,0.516,1.3,1.2,1.438C919.181,1384.152,924.042,1388.678,925.314,1394.819z"/>
				<path style="opacity:0.3;fill:#CED4EA;" d="M919.208,1396.084l7.485,36.149c0.886,4.28-1.892,8.509-6.171,9.395l-3.207,0.664
					c-4.524,0.937-8.995-2-9.932-6.524l-7.394-35.709c-1.259-6.077,1.336-12.097,6.101-15.501c0.229-0.164,0.415-0.378,0.544-0.618
					c0.177,0.147,0.391,0.253,0.63,0.3C913.075,1385.416,917.937,1389.942,919.208,1396.084z"/>
				
					<rect x="896.996" y="1400.881" transform="matrix(0.9792 -0.2028 0.2028 0.9792 -267.2954 214.4049)" style="fill:#ED7D2B;" width="31.483" height="21.67"/>
				
					<rect x="899.59" y="1376.944" transform="matrix(0.9788 -0.2047 0.2047 0.9788 -262.9665 214.5985)" style="fill:#ED7D2B;" width="12.5" height="2.959"/>
			</g>
			<g>
				<path style="fill:#AAC9F5;" d="M1053.563,1633.313l-11.925,75.866l-3.474,21.876l-6.854,43.849h-92.767
					c0,0-12.206-7.512-28.074-17.37c-27.041-16.995-64.411-40.656-68.167-44.881c-2.441-2.724-6.667-23.191-10.798-46.289
					c-5.822-32.956-11.455-71.454-11.455-71.454l33.99-63.472l-29.295-70.138l38.684-106.909l48.073,51.325l105.724,22.439
					L1053.563,1633.313z"/>
				<polygon style="fill:#AAC9F5;" points="915.657,1619.347 905.094,1679.204 984.317,1624.041 				"/>
				<path style="fill:#AAC9F5;" d="M1041.492,1709.18l-10.328,65.725h-92.767c0,0-12.206-7.512-28.074-17.37l-7.699-22.628
					l89.198-40.468l10.704-0.563L1041.492,1709.18z"/>
				<path style="fill:#C3D9FA;" d="M1053.563,1633.313l-11.925,75.866l-3.474,21.876c-6.009-3.004-47.885-24.6-46.195-36.617
					C993.753,1681.574,1053.563,1633.313,1053.563,1633.313z"/>
				<path style="fill:#C3D9FA;" d="M842.303,1712.653c0,0,56.336,17.019,60.444,22.3s15.844,27.581,15.844,27.581L842.303,1712.653z
					"/>
				<path style="fill:#C3D9FA;" d="M915.657,1619.347c0,0,44.6-12.91,48.707-18.778c4.108-5.869,32.863-41.665,32.863-41.665
					s-7.628,58.096-12.91,65.138C979.035,1631.083,915.657,1619.347,915.657,1619.347z"/>
				<path style="fill:#9DC1ED;" d="M879.109,1577.259l-47.604,89.105c-5.822-32.956-11.455-71.454-11.455-71.454l26.948-31.735
					L879.109,1577.259z"/>
				<path style="fill:#C3D9FA;" d="M879.109,1577.259c0,0-25.821-10.141-59.059,17.651l33.99-63.472L879.109,1577.259z"/>
				<polygon style="fill:#C3D9FA;" points="824.745,1461.301 903.334,1481.832 936.196,1531.908 				"/>
				<polygon style="fill:#9DC1ED;" points="905.094,1679.204 902.747,1734.953 991.969,1694.438 1053.563,1633.313 
					997.227,1558.903 970.233,1630.496 				"/>
			</g>
			<path style="fill:#2C3A64;" d="M818.714,1113.042c0,0-7.552-27.174-29.405-29.791s-35.593,10.469-38.538,23.228
				c-2.944,12.759-0.816,46.13,12.678,50.219C776.943,1160.785,818.714,1113.042,818.714,1113.042z"/>
			<path style="fill:#35488B;" d="M755.988,1381.958l-1.354-11.611c-22.684,6.025-83.291-16.835-83.291-16.835
				s-21.975,19.316-19.089,65.619c1.408,22.6,2.322,60.95,2.322,60.95c0.001,0,0.002,0,0.002,0
				c-0.057,32.885,2.39,65.454,4.342,86.103c0.971,10.299,1.822,17.629,2.169,20.557c0.007,0.014,0.007,0.021,0.007,0.028
				c0.106,0.893-0.205,1.736-0.659,2.517c-3.955,6.713-7.703,13.541-9.917,20.854c-15.495,51.185-3.298,129.824-3.298,129.824
				l15.257,23.799c0,0,17.317-96.305,31.388-138.851c2.389-7.217,4.678-12.888,6.776-16.275
				c6.118-9.875,11.795-26.008,16.949-45.197C727.277,1527.368,755.988,1381.958,755.988,1381.958z"/>
			<path style="fill:#ED985F;" d="M793.266,1170.714c0,0-2.992,9.148-5.196,17.919c-16.448-4.59-21.443-21.879-22.946-31.147
				L793.266,1170.714z"/>
			<path style="fill:#FFB27D;" d="M796.729,1180.4c0,0-39.352-9.107-33.303-33.526c6.049-24.419,5.043-42.04,30.424-37.258
				c25.381,4.782,27.935,15.306,27.899,23.946C821.714,1142.204,807.122,1182.14,796.729,1180.4z"/>
			<path style="fill:#2C3A64;" d="M823.963,1119.699c-4.231-8.851-9.21-8.378-12.324-6.809
				c-18.491-17.108-36.626-3.132-36.626-3.132c-6.981,16.863-22.109,23.754-22.109,23.754s6.045,6.19,23.566,6.054
				c5.352-0.041,10.733-2.499,15.629-5.885c-9.444,9.513-20.518,15.304-20.518,15.304c21.934-4.197,36.641-29.59,38.148-32.287
				c1.858,2.744,5.412,8.585,5.711,13.518c0.406,6.702-1.9,19.719,1.938,20.212C817.378,1150.428,830.308,1132.973,823.963,1119.699
				z"/>
			<path style="fill:#F99746;" d="M812.353,1217.481c0,0,9.475,16.528,10.893,20.781c0,0-12.287-0.473-17.249,8.979
				C805.997,1247.241,806.422,1219.856,812.353,1217.481z"/>
			<path style="fill:#F99746;" d="M809.076,1266.717c-0.285,0.775-0.619,1.54-0.972,2.315
				c-9.873,21.269-18.864,39.013-18.864,39.013c-0.245-0.146-1.433,78.801-13.377,81.912c-6.743,1.747-25.979,4.318-39.749,5.231
				c-6.694,0.441-25.027,1.472-41.83,0c-21.189-1.855-33.242-6.654-41.329-13.977c-9.589-12.769,34.832-54.862,40.867-85.15
				c-0.079-1.58,0.196-6.664,0.628-13.288c0.766-12.102,2.003-29.365,2.375-39.916c0.068-1.58,0.108-3.013,0.118-4.26
				c0-0.235,0.01-0.461,0.01-0.677c2.14-1.59,4.23-3.063,6.154-4.466c6.183-4.505,10.806-8.353,11.1-13.299
				c0.108-1.934,0.049-3.936-0.157-5.938c-0.088-0.942-0.206-1.885-0.353-2.816c-1.521-9.903-5.643-18.874-5.643-18.874
				c10.453-4.239,29.071-1.717,29.071-1.717s-0.03,1.04-0.04,2.728c-0.068,6.802,0,24.252,2.179,27.55
				c2.729,4.112,52.576,22.142,55.207,16.557c2.591-5.486-4.505-31.21-4.77-32.182c-0.01-0.029-0.01-0.029-0.01-0.029
				c16.694,6.546,22.662,12.042,22.662,12.042C802.294,1224.014,816.859,1246.086,809.076,1266.717z"/>
			<path style="fill:#ED7D2B;" d="M740.041,1343.299c-13.093-6.065-32.889-37.786-45.589-60.525
				c0.766-12.102,2.003-29.365,2.375-39.916L740.041,1343.299z"/>
			<path style="fill:#FFB27D;" d="M837.891,1361.867l-3.287,12.018c0,0-4.131-0.75-10.704-1.971
				c-1.972-0.376-3.098-0.657-3.098-0.657c-5.258-1.032-11.549-2.441-18.403-3.943h-0.094c-11.737-2.817-24.882-6.196-35.961-9.954
				c-7.793-2.722-14.553-5.632-19.154-8.543c-0.469-0.282-0.845-0.564-1.315-0.939c-10.985-7.979-24.037-31.453-34.177-56.617
				c-1.409-3.475-2.723-6.948-4.038-10.328c-4.695-12.582-8.45-24.976-10.703-35.68c-1.409-6.385-2.348-12.207-2.536-16.995
				c-0.094-1.689-0.188-3.285-0.094-4.789c0.188-27.228,13.708-30.984,13.708-30.984c0.281-0.094,0.563-0.188,0.939-0.28
				c2.347-0.376,4.789,1.219,7.324,4.318c3.192,3.849,6.573,10.141,10.047,17.745c5.351,12.112,10.985,27.793,16.243,43.38
				c2.911,8.543,5.727,17.088,8.544,24.975c1.597,4.789,3.193,9.295,4.695,13.428c2.911,7.887,5.54,14.271,7.887,18.309
				c1.502,2.629,5.821,6.291,11.549,10.422c9.953,7.229,24.506,15.963,37.182,23.098c5.258,3.005,10.234,5.729,14.365,7.981
				C833.477,1359.521,837.891,1361.867,837.891,1361.867z"/>
			<path style="fill:#F99746;" d="M726.312,1214.306c-18.076-4.983-32.019,9.13-32.019,9.13
				c0.226-27.185,13.759-30.906,13.759-30.906C713.496,1190.275,719.805,1199.703,726.312,1214.306z"/>
			<path style="fill:#F99746;" d="M877.349,1373.787c-6.009,2.533-14.459,11.36-27.98,6.009c-9.671-3.756-19.905-6.386-24.882-7.606
				c-1.972-0.375-3.098-0.656-3.098-0.656c-5.258-1.033-11.549-2.441-18.403-3.943c5.633-6.948,8.826-15.774,10.047-19.438
				c5.258,3.006,10.234,5.729,14.365,7.982c13.61,5.193,21.126,4.507,29.389,2.629c9.295-2.159,24.882,9.014,24.882,9.014
				S883.358,1371.346,877.349,1373.787z"/>
			<path style="fill:#233862;" d="M704.033,1770.22h-60.729c0,0-2.27-9.686,1.717-16.277c3.529-5.831,2.027-12.548,1.31-20.509
				c2.751,1.126,6.255,4.021,10.123,4.689c4.253,0.736,8.469-0.499,11.275-2.129c2.614,2.98,9.92,18.383,13.417,20.896
				C685.115,1759.742,702.811,1758.726,704.033,1770.22z"/>
			<path style="fill:#233862;" d="M826.522,1770.22h-60.728c0,0-2.271-9.686,1.716-16.277c3.529-5.831,2.027-12.548,1.311-20.509
				c2.751,1.126,6.255,4.021,10.122,4.689c4.253,0.736,9.75-2.071,12.556-3.7c1.376,11.797,8.639,19.954,12.136,22.468
				C807.603,1759.742,825.3,1758.726,826.522,1770.22z"/>
		</g>
	</g>
	<path style="fill:#2E3552;" d="M3041.895,1777.191H250.372c-1.709,0-3.106-1.397-3.106-3.105v-0.913
		c0-1.708,1.397-3.106,3.106-3.106h2791.522c1.708,0,3.105,1.398,3.105,3.106v0.913
		C3045,1775.794,3043.603,1777.191,3041.895,1777.191z"/>
</g>
</svg>
