<?xml version="1.0" encoding="utf-8"?>
<!-- Generator: Adobe Illustrator 27.5.0, SVG Export Plug-In . SVG Version: 6.00 Build 0)  -->
<svg version="1.1" id="_x3C_Layer_x3E_" xmlns="http://www.w3.org/2000/svg" xmlns:xlink="http://www.w3.org/1999/xlink" x="0px"
	 y="0px" viewBox="0 0 3000 2000" style="enable-background:new 0 0 3000 2000;" xml:space="preserve">
<rect style="fill:#FFFFFF;" width="3000" height="2000"/>
<g>
	<defs>
		<path id="SVGID_1_" d="M2441.833,1820.958c-60.676,23.066-1876.51,11.167-1876.51,11.167
			c-167.792-103.351-281.227-325.589-172.869-578.684c79.439-185.549,244.025-140.97,236.58-478.155
			c-12.905-584.519,464.188-299.233,636.612-440.007c544.453-444.517,495.995,117.028,925.077,149.387
			c430.774,32.486,107.231,504.282,303.852,660.574C2676.723,1290.027,2744.643,1705.843,2441.833,1820.958z"/>
	</defs>
	<clipPath id="SVGID_00000158732797692667144620000005357920543271406256_">
		<use xlink:href="#SVGID_1_"  style="overflow:visible;"/>
	</clipPath>
	<g style="clip-path:url(#SVGID_00000158732797692667144620000005357920543271406256_);">
		<path style="fill:#DAE6FF;" d="M2441.833,1820.958c-60.676,23.066-1876.51,11.167-1876.51,11.167
			c-167.792-103.351-281.227-325.589-172.869-578.684c79.439-185.549,244.025-140.97,236.58-478.155
			c-12.905-584.519,464.188-299.233,636.612-440.007c544.453-444.517,495.995,117.028,925.077,149.387
			c430.774,32.486,107.231,504.282,303.852,660.574C2676.723,1290.027,2744.643,1705.843,2441.833,1820.958z"/>
	</g>
	<g style="clip-path:url(#SVGID_00000158732797692667144620000005357920543271406256_);">
		<g>
			<g>
				<g>
					<g>
						<path style="fill:#D96559;" d="M2049.727,1029.589c-0.153,9.32-1.178,18.019-2.434,22.692
							c-3.694,13.771,18.43,129.057,23.533,148.372c5.097,19.322,18.378,83.072,18.378,83.072l-117.55,84.569
							c0,0-19.814-30.746-31.878-44.855c-12.059-14.117-90.924-63.127-111.365-80.072c-20.441-16.945-131.256-72.672-120.496-93.152
							c10.747-20.478,119.262,52.399,123.479,39.174c4.218-13.212-139.4-123.283-122.499-147.721
							c18.865-27.291,128.094,99.894,136.04,89.119c7.945-10.775-129.292-141.878-99.988-165.831
							c22.301-18.237,129.206,136.145,141.475,125.547c12.275-10.605-78.197-135.255-52.926-153.646
							c17.821-12.969,56.459,54.746,93.499,101.205c28.751,36.079,53.643,64.438,63.328,75.319c1.5,1.68,4.281,0.608,4.281-1.64
							c0.112-87.956,25.541-115.075,41.603-118.428c0.8-0.168,1.567-0.209,2.291-0.142
							C2047.494,994.071,2050.012,1012.823,2049.727,1029.589z"/>
					</g>
					<g>
						<path style="fill:#D96559;" d="M2278.353,1564.639l191.256,282.598c-40.313,4.814-80.599,8.318-120.79,10.814
							c-44.764,2.789-89.414,4.322-133.874,5.034l-69.062-143.307l-15.95-31.91l-10.887-21.805l-16.581-33.167l-136.636-273.446
							l-0.013-0.03l-0.962-1.946l123.332-78.542l0.011,0.009l0.01-0.001l0.022,0.019l155.983,234.385l13.236,19.892
							L2278.353,1564.639z"/>
					</g>
				</g>
			</g>
			<g>
				<g>
					<path style="fill:#E87765;" d="M1922.522,1095.287c1.055,6.858-0.905,17.015-3.851,26.678c-0.385,1.244-0.779,2.49-1.19,3.707
						c-2.955,8.842-6.556,16.828-9.153,20.906c-7.679,12.021-21.31,128.611-22.26,148.572c-0.803,16.634-5.486,64.457-7.018,79.888
						c-0.31,3.078-0.49,4.862-0.49,4.862l-137.567,45.225c0,0-1.122-4.091-2.881-10.171c-3.403-11.764-9.221-30.942-14.008-42.21
						c-7.237-17.096-67.674-87.586-82.058-109.908c-14.392-22.309-103.267-108.839-86.831-125.12
						c16.414-16.288,97.933,85.889,105.939,74.556c7.995-11.331-95.785-159.559-72.305-177.762
						c26.214-20.34,92.046,133.844,102.872,125.954c10.818-7.878-80.544-174.236-45.382-188.245
						c26.761-10.667,82.18,168.741,97.077,162.338c14.895-6.413-33.817-152.535-4.175-162.451
						c20.897-7.004,37.341,69.209,58.662,124.667c16.544,43.067,31.733,77.61,37.686,90.901c0.926,2.054,3.904,1.87,4.586-0.272
						c26.597-83.835,59.016-102.037,75.344-100.389c0.815,0.077,1.554,0.264,2.224,0.549
						C1920.463,1088.727,1921.948,1091.514,1922.522,1095.287z"/>
				</g>
				<g>
					<path style="fill:#E87765;" d="M2019.083,1862.239c-15.504-0.277-30.969-0.577-46.395-0.891
						c-31.494-0.627-62.828-1.288-93.965-1.79l-0.01,0.001c-24.021-0.406-47.924-0.728-71.701-0.888l-5.781-45.915l-5.593-35.227
						l-3.817-24.073l-0.001-0.01l-5.815-36.598l-0.001-0.01l-47.884-301.858l-0.013-0.03l-0.004-0.051l-0.345-2.148l141.277-37.742
						l0.002,0.02l0.011,0.009l0.012,0.019l78.127,270.487l6.628,22.951l10.464,36.248l0.001,0.01L2019.083,1862.239z"/>
				</g>
				<g>
					<path style="fill:#180C7A;" d="M1774.265,1793.576c-7.935,0.632-12.972-1.096-15.402-5.166
						c-4.336-7.254,3.212-16.896,5.693-20.065c5.371-6.861,13.744-15.019,24.887-24.248c1.986-1.643,4.931-1.368,6.577,0.618
						c1.645,1.987,1.368,4.931-0.618,6.577c-24.811,20.548-28.987,30.385-28.512,32.323c1.322,1.182,10.559,2.254,36.188-7.513
						c22.124-8.43,49.636-22.231,77.468-38.859c27.831-16.629,53.021-34.316,70.929-49.804
						c20.706-17.908,24.167-26.553,23.765-28.298c-0.284-0.204-2.288-1.372-9.456-0.303c-2.544,0.372-4.927-1.382-5.307-3.933
						c-0.38-2.551,1.382-4.928,3.933-5.307c3.641-0.541,14.718-2.188,18.856,4.739c4.718,7.895-2.978,20.255-24.218,38.895
						c-18.398,16.145-44.575,34.623-73.71,52.03c-29.135,17.408-57.81,31.703-80.746,40.254
						C1791.756,1790.299,1781.728,1792.982,1774.265,1793.576z"/>
				</g>
				<g>
					<path style="fill:#180C7A;" d="M1760.982,1733.835c-11.61,0.925-18.366-1.25-20.824-6.547
						c-6.618-14.264,28.556-36.807,40.115-44.214c2.171-1.393,5.061-0.761,6.453,1.412c1.392,2.172,0.76,5.061-1.412,6.453
						c-30.975,19.852-36.979,30.232-36.672,32.414c1.19,1.315,10.273,3.341,36.772-3.705c22.882-6.083,51.68-16.946,81.09-30.588
						c29.411-13.642,56.305-28.614,75.727-42.154c22.457-15.656,26.798-23.893,26.58-25.672c-0.314-0.277-2.974-2.195-14.298-0.878
						c-2.597,0.285-4.881-1.539-5.178-4.102c-0.296-2.563,1.54-4.881,4.102-5.178c8.545-0.984,20.314-1.422,23.857,6.216
						c3.87,8.343-5.07,19.835-28.135,36.164c-19.978,14.143-47.935,29.797-78.723,44.079
						c-30.788,14.281-60.795,25.515-84.496,31.632C1775.948,1731.745,1767.661,1733.302,1760.982,1733.835z"/>
				</g>
			</g>
		</g>
		<g>
			<path style="fill:#FF8A7F;" d="M1606.094,1055.395l-6.365,3.314c-1.871,0.974-4.199,0.24-5.174-1.631l-4.599-8.833
				c-1.835-3.525-0.452-7.91,3.073-9.746l0,0c3.525-1.835,7.911-0.452,9.746,3.073l4.781,9.185
				C1608.43,1052.434,1607.772,1054.521,1606.094,1055.395z"/>
		</g>
		<g>
			<path style="fill:#FF8A7F;" d="M1658.936,996.961l-7.894,2.785c-2.321,0.819-4.89-0.41-5.708-2.731l-2.701-7.654
				c-1.543-4.372,0.772-9.211,5.144-10.753l0,0c4.372-1.543,9.21,0.772,10.753,5.144l2.855,8.09
				C1662.119,993.923,1661.017,996.226,1658.936,996.961z"/>
		</g>
		<g>
			<path style="fill:#FF8A7F;" d="M1749.945,999.028l-8.238,1.486c-2.422,0.437-4.761-1.188-5.198-3.609l-1.44-7.988
				c-0.823-4.562,2.237-8.968,6.799-9.791l0,0c4.562-0.823,8.968,2.237,9.791,6.799l1.522,8.443
				C1753.573,996.539,1752.117,998.636,1749.945,999.028z"/>
		</g>
		<g>
			<path style="fill:#FF8A7F;" d="M1922.522,1095.287c1.055,6.858-0.905,17.015-3.851,26.678l-6.136-1.457
				c-2.689-0.636-4.365-3.357-3.728-6.045l2.857-12.049C1912.812,1097.529,1917.633,1094.417,1922.522,1095.287z"/>
		</g>
		<g>
			<path style="fill:#FF8A7F;" d="M1573.59,1152.982l-4.939,4.177c-1.439,1.217-3.612,1.035-4.83-0.404l-5.196-6.144
				c-2.293-2.711-1.951-6.805,0.76-9.098l0.043-0.037c2.711-2.293,6.805-1.951,9.097,0.76l5.425,6.415
				C1575.044,1149.942,1574.881,1151.891,1573.59,1152.982z"/>
		</g>
	</g>
	<g style="clip-path:url(#SVGID_00000158732797692667144620000005357920543271406256_);">
		<g>
			<g>
				<path style="fill:#FA8F7E;" d="M834.555,1282.654c-6.921-9.161-13.468-18.102-19.65-26.859
					c15.955-13.967,50.107-43.858,64.098-63.042c0.004-0.006,0.014-0.015,0.018-0.021c12.613-18.915,3.337-21.943,9.708-48.978
					c6.103-26.581,20.747-59.612,33.904-83.362c12.164-21.897,22.508-45.541,27.557-70.971c8.496-45.692,10.043-48.092,17.417-46.69
					c5.54,0.972,14.363,5.304,17.733,9.793c12.371,16.719,4.516,51.534,0.782,74.349c99.386-79.581,161.887-151.663,178.53-122.13
					c6.547,11.617-64.663,85.527-93.249,111.457c-6.54,5.933,3.542,3.143,4.705,2.495c35.968-20.043,121.628-113.077,140.103-86.592
					c13.395,19.202-87.901,103.248-115.982,127.852c-5.028,4.405-0.092,6.282,2.067,5.21
					c29.348-14.569,85.741-69.981,107.393-75.123c12.376-2.94,18.336,18.089-12.865,49.876
					c-10.346,10.54-49.005,45.303-65.379,60.044c-4.221,3.8-0.052,3.413,2.14,2.543c19.819-7.862,50.811-29.633,64.611-32.307
					c15.437-2.992,11.228,19.25-8.286,37.747c-55.095,52.224-124.231,130.595-194.567,160.847
					c-25.734,18.307-48.92,39.638-68.035,61.779C891.219,1316.016,860.688,1299.858,834.555,1282.654z"/>
			</g>
			<g>
				<g>
					<polygon style="fill:#FFFFFF;" points="941.449,1331.543 971.964,1287.125 866.393,1206.429 827.24,1237.946 					"/>
				</g>
				<path style="fill:#1561BC;" d="M836.161,1226.621l124.045,96.14c0,0-169.072,314.322-255.001,444.352
					c-0.444-0.198-63.168,128.754-63.613,128.553c-76.622-34.408-202.028-124.922-268.126-193.546
					C476.118,1574.282,836.161,1226.621,836.161,1226.621z"/>
				<g>
					<path style="fill:#100259;" d="M869.998,1226.089c-1.075,2.789-4.207,4.178-6.996,3.103c-2.789-1.075-4.178-4.207-3.103-6.996
						c1.075-2.789,4.207-4.178,6.996-3.103C869.684,1220.168,871.073,1223.3,869.998,1226.089z"/>
				</g>
			</g>
			<g>
				<path style="fill:#F2806D;" d="M972.421,1150.946c0.098,0.115,0.219,0.213,0.359,0.29c0.619,0.335,1.392,0.105,1.727-0.513
					c14.894-27.473,18.707-50.587,11.656-70.664c-6.443-18.351,1.808-56.506,1.892-56.89c0.151-0.687-0.284-1.367-0.971-1.518
					c-0.687-0.151-1.367,0.284-1.518,0.971c-0.35,1.594-8.487,39.253-1.806,58.28c6.799,19.36,3.039,41.801-11.493,68.606
					C972.009,1149.987,972.087,1150.557,972.421,1150.946z"/>
			</g>
		</g>
		<g>
			<g>
				<path style="fill:#FFA089;" d="M1185.508,1358.383c7.459-1.933,29.378-102.355,10.151-134.572
					c-1.465-2.454-1.875-5.849-2.496-9.482c-5.196-30.236,4.015-76.501,3.865-76.662c4.555-26.521,8.299-33.921,10.72-50.299
					c2.372-15.128,3.52-34.946,3.266-44.383c-0.099-14.293-5.907-53.379,0.546-56.765c3.84-2.207,13.826-0.434,18.659,1.385
					c20.727,7.476,22.679,51.898,24.959,74.057c75.086-102.814,116.546-188.749,140.339-164.602
					c9.36,9.499-40.022,99.47-60.824,131.979c-4.759,7.438,92.984-139.794,117.747-119.068
					c17.954,15.027-57.811,122.656-78.473,153.752c-3.699,5.567,67.223-93.186,87.344-96.126
					c12.586-1.839,22.432,12.659,0.639,51.504c-7.227,12.881-35.439,56.551-47.383,75.063c-3.079,4.773,44.014-40.005,56.633-46.198
					c14.115-6.928,15.875,15.64,1.883,38.6c-39.505,64.824-85.717,158.559-145.682,206.167
					c-20.171,27.934-14.995,94.217-16.179,96.685C1272.58,1384.818,1193.766,1365.216,1185.508,1358.383z"/>
			</g>
			<g>
				<g>
					<polygon style="fill:#FFFFFF;" points="1326.952,1363.085 1327.931,1309.203 1195.365,1300.064 1180.069,1347.942 					"/>
				</g>
				<path style="fill:#1561BC;" d="M1181.272,1333.565l156.494,11.858c0,0,11.068,119.958,20.283,232.777
					c-0.617,0.939,22.534,283.947,21.918,284.884c-49.557,75.368-162.304-7.163-301.447,18.247
					C1103.199,1703.512,1181.272,1333.565,1181.272,1333.565z"/>
				<g>
					<path style="fill:#100259;" d="M1209.209,1314.48c0.64,2.919-1.208,5.805-4.127,6.445c-2.92,0.64-5.805-1.208-6.445-4.127
						s1.208-5.805,4.127-6.445C1205.684,1309.713,1208.569,1311.561,1209.209,1314.48z"/>
				</g>
			</g>
		</g>
	</g>
	<g style="clip-path:url(#SVGID_00000158732797692667144620000005357920543271406256_);">
		<g>
			<path style="fill:#FF6760;" d="M1361.324,466.395h-175.686c-36.555,0-66.188,29.805-66.188,66.572v176.706
				c0,36.767,29.634,66.573,66.189,66.573h44.487c8.768,0,16.479,5.833,18.912,14.306l24.44,85.114l26.678-85.546
				c2.574-8.256,10.181-13.874,18.783-13.874h42.386c36.554,0,66.187-29.805,66.187-66.571V532.967
				C1427.512,496.201,1397.878,466.395,1361.324,466.395z"/>
		</g>
		<g>
			<path style="fill:#FFFFFF;" d="M1365.233,572.71c-40.416-52.507-93.743,11.857-93.743,11.857s-53.327-64.364-93.743-11.857
				s93.743,153.57,93.743,153.57S1405.649,625.217,1365.233,572.71z"/>
		</g>
	</g>
	<g style="clip-path:url(#SVGID_00000158732797692667144620000005357920543271406256_);">
		<g>
			<path style="fill:#89B4FD;" d="M1829.135,544.108h-159.062c-33.096,0-59.925,26.985-59.925,60.273v159.985
				c0,33.288,26.83,60.274,59.926,60.274h40.277c7.939,0,14.92,5.281,17.123,12.952l22.128,77.061l24.154-77.452
				c2.331-7.474,9.217-12.561,17.005-12.561h38.375c33.095,0,59.924-26.985,59.924-60.272V604.381
				C1889.06,571.093,1862.23,544.108,1829.135,544.108z"/>
		</g>
		<g>
			<g>
				<path style="fill:#FFFFFF;" d="M1661.85,671.228l5.684,0.194c-5.774-0.197-10.337-5.109-10.142-10.916l0.106-3.138
					c0.195-5.807,5.079-10.397,10.853-10.2c0,0,23.541-2.975,44.197-2.271c-11.366-20.183-17.458-61.987-6.079-64.733
					c12.86-3.103,11.601,26.208,27.559,42.975c5.801,6.095,15.268,8.965,24.999,16.528c17.152,13.331,45.298,17.03,45.298,17.03
					l-2.271,74.341c0,0-47.573,14.802-59.285,15.795c-18.78,1.593-75.344-2.568-75.344-2.568l0,0
					c-7.063-0.24-12.645-6.249-12.406-13.353l0.026-0.781c0.196-5.807,5.079-10.397,10.853-10.201h0
					c-7.019-0.239-12.567-6.211-12.329-13.271l0.029-0.86c0.196-5.807,5.08-10.397,10.853-10.201l-0.299-0.01
					c-7.49-0.255-13.41-6.628-13.156-14.16l0,0C1651.193,675.621,1656.077,671.031,1661.85,671.228z"/>
			</g>
			<g>
				
					<rect x="1794.679" y="651.869" transform="matrix(-0.9994 -0.0341 0.0341 -0.9994 3586.4688 1449.7729)" style="fill:#B8D0FC;" width="21.808" height="84.939"/>
			</g>
			<g>
				
					<rect x="1794.232" y="679.27" transform="matrix(0.0341 -0.9994 0.9994 0.0341 1075.2498 2501.5452)" style="fill:#100259;" width="75.021" height="30.492"/>
			</g>
		</g>
	</g>
</g>
</svg>
